<?xml version="1.0" encoding="utf-8"?>
<!-- Generator: Adobe Illustrator 18.1.0, SVG Export Plug-In . SVG Version: 6.00 Build 0)  -->
<svg version="1.1" id="Menu" xmlns="http://www.w3.org/2000/svg" xmlns:xlink="http://www.w3.org/1999/xlink" x="0px" y="0px"
	 viewBox="0 0 78.1 41.6" enable-background="new 0 0 78.1 41.6" xml:space="preserve">
<g>
	<g>
		<g>
			<path fill="#FFFFFF" d="M49.9,0.2c0.3,0,0.6,0.1,0.9,0.3c0.4,0.3,0.9,0.5,1.3,0.6c-0.1,0.2-0.1,0.3,0.1,0.3
				c-0.1,0.2-0.2,0.3-0.4,0.5c0.1,0,0.2,0,0.2,0c0-0.1,0-0.3,0-0.3c0.1,0,0.3,0.1,0.4,0.1c0,0-0.1,0.1-0.2,0.2
				c0,0.1,0.1,0.2,0.2,0.2c0,0.1-0.1,0.2-0.2,0.2c0.1,0.1,0.2,0.1,0.3,0.2c0.1,0.1,0.2,0.3,0.3,0.4c0,0-0.1,0.1-0.2,0.2
				c0,0.1,0.1,0.2,0.2,0.3c-0.1,0-0.2-0.1-0.2-0.2c0,0.1,0,0.2,0,0.3c0.1,0,0.2-0.1,0.3-0.1c-0.1,0.2-0.3,0.4-0.4,0.5
				c0.1,0,0.2,0,0.2,0c-0.2,0.2-0.4,0.5-0.5,0.7c0.3,0,0.3-0.3,0.5-0.5c-0.1,0.3-0.1,0.6-0.1,0.9c0,0.1,0,0.2,0,0.3
				c-0.1,0-0.2,0.1-0.3,0.1c0,0.3-0.1,0.5-0.2,0.8c0.2,0.1,0.4,0.1,0.5,0.1c-0.1,0-0.2,0.1-0.3,0.1c0,0.1,0,0.2,0,0.3
				c-0.2-0.2-0.4-0.4-0.6-0.5c-0.1,0.3,0.2,0.5,0.5,0.6c-0.1,0.1-0.2,0.1-0.3,0.2c0,0.1,0,0.2,0,0.3c-0.2,0.2-0.3,0.4-0.5,0.6
				c0.1,0,0.2-0.1,0.3-0.1c0.1,0,0.2,0.1,0.3,0.1C52.1,8,52,8.1,51.8,8.1c0.1,0.1,0.1,0.2,0.2,0.3c-0.1,0-0.2,0-0.3,0
				c0,0-0.1,0.1-0.2,0.2c0.2,0.1,0.4,0.1,0.6,0.2C52,8.9,52,9,51.9,9.1c0,0,0.1,0.1,0.1,0.1c-0.1,0.1-0.2,0.2-0.3,0.3
				c0,0,0.1,0.1,0.1,0.1c0,0.1-0.1,0.2-0.2,0.3c0.1,0,0.2-0.1,0.3-0.2c0.2,0.2,0.1,0.4-0.1,0.5c0-0.1,0.1-0.3,0.1-0.3
				c-0.5,0.1-0.3,0.4,0.1,0.6c0,0.2-0.1,0.5-0.1,0.7c-0.1-0.3-0.4-0.3-0.6-0.4c0.1,0.1,0.2,0.3,0.3,0.4c0.1,0,0.2,0,0.3,0
				c0,0.2-0.1,0.4-0.2,0.6c0.1,0.1,0.1,0.3,0.2,0.4c-0.1,0-0.2,0-0.2,0c0,0.2,0.1,0.4,0.1,0.6c0,0-0.1,0.1-0.2,0.2
				c0.1,0.2,0.1,0.5,0.1,0.7c-0.1,0-0.3,0-0.3,0c0,0.1,0.1,0.2,0.1,0.3c-0.1,0.2-0.1,0.5-0.2,0.8c0.1,0.1,0.1,0.1,0.2,0.2
				c-0.1,0.2-0.2,0.4-0.4,0.5c0,0.1,0.1,0.3,0.1,0.4c-0.1,0-0.3,0.1-0.4,0.1c0.1,0.2,0.1,0.3-0.2,0.3c0.1,0.1,0.2,0.2,0.3,0.2
				c0.1,0,0.2,0,0.3,0c-0.2,0.1-0.5,0.3-0.7,0.1c0,0.1,0,0.2,0,0.3c0.2,0,0.4-0.1,0.6,0c-0.3,0.1-0.6,0.2-0.9,0.3
				c0,0.1,0.1,0.2,0.1,0.4c0.4,0,0.5,0.4,0.1,0.5c0.1,0.2,0.1,0.5,0.2,0.7C50.4,19,50.2,19,50,19c-0.1,0-0.2,0-0.2,0
				c0.1,0.1,0.2,0.2,0.2,0.4c0.1,0,0.2-0.1,0.3-0.1c0,0.1-0.1,0.3-0.1,0.4c0,0.1,0.1,0.1,0.1,0.2c-0.1,0-0.3,0-0.4,0
				c0.1,0,0.2,0.1,0.3,0.2c-0.1,0.1-0.2,0.1-0.4,0.2c0,0.1,0.1,0.1,0.1,0.2c-0.1,0.2-0.1,0.3-0.3,0.4c0.1,0.1,0.2,0.1,0.3,0.2
				c-0.1,0.2-0.2,0.3-0.3,0.5c0.1,0.2,0.2,0.4,0.3,0.5c-0.1-0.1-0.2-0.1-0.4-0.2c-0.1,0.2-0.3,0.3-0.4,0.5c0.2,0,0.4-0.1,0.6-0.1
				c0,0.2-0.1,0.4-0.1,0.6c-0.1,0.1-0.2,0.1-0.4,0.2c0.1,0,0.2,0,0.3,0c0,0-0.1,0.1-0.2,0.2c0,0,0.1,0.1,0.2,0.2c-0.1,0-0.3,0-0.4,0
				c0.2,0.2,0.4,0.3,0.4,0.6c0-0.1-0.1-0.2-0.2-0.3c-0.1,0-0.2,0-0.3,0c0,0.2,0.1,0.3,0.1,0.5c0.1,0.1,0.1,0.2,0.2,0.3
				c-0.1,0.1-0.3,0.1-0.4,0.2c-0.1,0-0.2,0.1-0.3,0.2c-0.1,0-0.2,0-0.3,0c0.1,0.1,0.2,0.2,0.3,0.3c0-0.1,0-0.3,0-0.3
				c0.1,0,0.2,0,0.2,0c0,0,0.1,0.1,0.1,0.2c-0.1,0.1-0.1,0.2-0.2,0.3c-0.1-0.1-0.1-0.1-0.2-0.1c-0.1,0.1-0.1,0.2-0.2,0.3
				c0.1,0.1,0.1,0.1,0.2,0.2c-0.1,0.2-0.1,0.3-0.2,0.5c-0.1-0.1-0.2-0.1-0.2-0.2c-0.1,0.2-0.2,0.5-0.2,0.8c-0.1,0.1-0.2,0.3-0.4,0.4
				c0.1,0.3,0,0.6,0,0.9c0,0,0,0.1-0.1,0.1c0.1,0.1,0.2,0.2,0.2,0.2c-0.2,0-0.3,0.1-0.5,0.1c0.2,0.3,0,0.5-0.2,0.7
				c0.1-0.1,0.3-0.2,0.4-0.3c0,0.1,0,0.3,0,0.3c-0.1,0-0.2,0-0.2,0c0.1,0.1,0.1,0.2,0.2,0.3c-0.1,0.2,0.1,0.5-0.2,0.7
				c0-0.1,0-0.2-0.1-0.3c0,0-0.1,0.1-0.2,0.1c0.1,0.2,0.3,0.5,0,0.7c0,0.1-0.1,0.3-0.1,0.4c0.1-0.1,0.2-0.3,0.3-0.4
				c0,0.1,0,0.2,0,0.3c-0.1,0.1-0.2,0.2-0.2,0.2c0.1,0,0.2,0,0.2,0c0,0,0,0.1,0,0.2c-0.1,0-0.3,0-0.4,0c0.1,0.1,0.3,0.2,0.4,0.4
				c-0.1,0-0.3,0-0.4,0c0,0.1,0.1,0.1,0.2,0.2c-0.2,0.1-0.3,0.3-0.4,0.5c0.1,0,0.2-0.1,0.3-0.1c0.1,0.2,0.1,0.4,0,0.6
				c0,0.1,0.1,0.3,0.1,0.4c-0.1,0-0.2,0-0.3,0c-0.2,0.2-0.4,0.4-0.5,0.6c0.1,0,0.2,0.1,0.3,0.1c0.1,0,0.3,0,0.4-0.1
				c-0.2,0.1-0.3,0.2-0.5,0.2c0.2,0.1,0.4,0.2,0.5,0.4c-0.1,0-0.2-0.1-0.3-0.1c0.1,0.2,0.1,0.5,0,0.7c0.1,0.1,0.1,0.1,0.2,0.2
				c-0.1,0.1-0.2,0.2-0.4,0.3c0.1,0.2,0.1,0.5,0,0.7c0,0,0,0.1,0,0.1c0,0.1-0.1,0.2-0.2,0.3c0,0.5,0.2,0.9,0,1.4
				c-0.2,0.9-0.2,1.8-0.5,2.6c-0.1-0.1-0.2-0.2-0.3-0.3c0,0.1,0.1,0.2,0.1,0.4c-0.1,0-0.2,0.1-0.3,0.1c-0.2,0.2-0.5,0.1-0.7,0
				c0,0-0.1,0.1-0.1,0.1c0,0-0.1-0.1-0.2-0.2c-0.1,0-0.2,0.1-0.3,0.1c-0.1-0.1-0.1-0.3-0.2-0.4c-0.1,0-0.2-0.1-0.3-0.1
				c0-0.2,0-0.5-0.1-0.7c0-0.1,0.1-0.2,0.1-0.4c0,0,0.1-0.1,0.2-0.1c0-0.1-0.1-0.2-0.1-0.4c0.1,0,0.2,0,0.2,0
				c-0.1-0.1-0.1-0.2-0.2-0.3c0.1-0.2,0.1-0.4,0.2-0.7c-0.1-0.2-0.1-0.4,0-0.5c0,0,0.1,0.1,0.1,0.1c0.1-0.1,0.3-0.3,0.4-0.4
				c-0.2,0-0.3,0.1-0.5,0.1c0-0.1-0.1-0.2-0.1-0.3c0.2-0.3,0.2-0.7,0.1-1c0,0,0.1-0.1,0.2-0.2c0-0.2,0-0.4,0-0.5
				c0-0.4,0.2-0.7,0.2-1c0-0.1-0.1-0.2-0.1-0.3c0.1,0,0.2,0,0.2,0c-0.1-0.4,0-0.8,0-1.2c0,0,0.1,0,0.2,0c-0.1-0.2-0.1-0.4-0.2-0.6
				c0.1,0.1,0.2,0.1,0.3,0.2c0-0.1-0.1-0.2-0.2-0.3c0,0,0.1-0.1,0.1-0.1c-0.1-0.1-0.2-0.2-0.3-0.3c0.1,0,0.2,0,0.3,0
				c-0.1-0.1-0.2-0.2-0.3-0.3c0.1-0.1,0.2-0.3,0.3-0.4c0,0-0.1-0.1-0.1-0.2c0.1-0.2,0.1-0.4,0-0.6c0.4-0.1,0.1-0.5,0.1-0.8
				c0.1-0.1,0.2-0.2,0.3-0.2c0,0-0.1-0.1-0.2-0.2c0.1-0.1,0.2-0.3,0.3-0.4c-0.1,0-0.3,0.1-0.4,0.1c0-0.2,0-0.4,0.2-0.5
				c-0.1-0.2-0.1-0.5-0.1-0.7c0.1,0,0.2-0.1,0.2-0.2c0,0-0.1-0.1-0.1-0.2c0.1-0.1,0.2-0.2,0.3-0.3c-0.1-0.2-0.2-0.3-0.3-0.5
				c0.1-0.1,0.1-0.2,0.2-0.3c0.1,0,0.2,0,0.4,0c0-0.1,0-0.2,0-0.2c-0.1,0-0.2,0.1-0.3,0.1c0.1-0.3,0.2-0.5,0.4-0.8
				c-0.1,0.1-0.3,0.1-0.4,0.1c0.1-0.3,0.3-0.4,0.5-0.5c-0.1-0.2-0.2-0.3-0.4-0.4c0,0,0-0.1,0-0.2c0.1,0,0.2,0,0.3,0
				c0.1,0.1,0.1,0.2,0.2,0.2c0.1-0.1,0.1-0.2,0.2-0.3c-0.1-0.1-0.2-0.1-0.3-0.2c0,0,0.1-0.1,0.1-0.1c-0.2-0.1-0.4-0.2-0.5-0.4
				c0.2,0,0.4,0.1,0.6,0.1c0,0,0-0.1,0-0.2c-0.1,0-0.2,0-0.3,0c0.1-0.1,0.1-0.3,0.2-0.4c0.1,0,0.2,0,0.3,0c-0.1-0.1-0.1-0.1-0.2-0.2
				c-0.1,0.1-0.2,0.2-0.3,0.3c0.1-0.4,0.1-0.8,0.1-1.2c0,0-0.1-0.1-0.1-0.1c0.1-0.1,0.2-0.2,0.3-0.3c-0.2-0.1-0.2-0.3-0.3-0.5
				c0.1-0.1,0.2-0.2,0.2-0.2c0,0,0.1,0.1,0.2,0.2c0.1-0.1,0.1-0.1,0.2-0.2c-0.1-0.3-0.1-0.6-0.2-0.8c0,0-0.1-0.1-0.2-0.2
				c0-0.2,0-0.5-0.1-0.7c0,0,0.1,0,0.2,0c0,0-0.1-0.1-0.1-0.2c0,0,0.1-0.1,0.1-0.2C46.3,19,46.1,19,46,19c0.1-0.1,0.2-0.2,0.3-0.3
				c-0.4-0.5,0.2-0.9,0.5-1.2c-0.1-0.1-0.3-0.1-0.4-0.1c0,0.2-0.1,0.3-0.1,0.5c0-0.2,0-0.4,0-0.6c0.2-0.2,0.6-0.3,0.7-0.7
				c-0.2,0.1-0.4,0.2-0.6,0.4c-0.1-0.2-0.1-0.4-0.1-0.6c0.2-0.1,0.4-0.2,0.6-0.3c-0.1-0.1-0.2-0.1-0.3-0.2c0.1,0,0.2-0.1,0.3-0.1
				c-0.1-0.2,0-0.5,0.2-0.6c-0.1,0-0.2,0.1-0.3,0.1c-0.1-0.1-0.2-0.2-0.2-0.3c0.2,0,0.3-0.2,0.2-0.4c0,0,0.1-0.1,0.2-0.1
				c0-0.1,0-0.1,0-0.2c0.1-0.1,0.2-0.2,0.3-0.3c-0.2,0-0.3,0-0.5,0c0.1-0.1,0.1-0.2,0.2-0.3c0.1,0.1,0.2,0.1,0.3,0.2
				c-0.1-0.2-0.1-0.4,0-0.5c0,0-0.1-0.1-0.1-0.2c0,0,0.1-0.1,0.2-0.2c-0.1,0-0.3,0-0.4,0c0,0.1,0.1,0.3,0.1,0.4
				c-0.2-0.1-0.2-0.4-0.2-0.6c0.2-0.1,0.3-0.1,0.5-0.2c-0.1,0-0.2,0-0.3,0c0-0.1,0-0.2,0-0.2c-0.1-0.1-0.2-0.2-0.3-0.4
				c0.2,0.1,0.4,0.1,0.6,0.2l0-0.1c-0.1,0-0.2,0-0.3,0c0-0.1,0-0.2,0-0.2c0.1,0,0.2,0.1,0.3,0.1c-0.1-0.1-0.2-0.3-0.3-0.4
				c0.1,0,0.2,0,0.2,0c0-0.2-0.1-0.4-0.1-0.7c-0.1-0.1-0.2-0.2-0.2-0.2c0.1-0.1,0.2-0.2,0.3-0.3c-0.1-0.2-0.1-0.4,0-0.6
				c-0.1,0.1-0.2,0.1-0.3,0.2c0-0.3,0-0.6,0-0.8c0,0,0.1,0,0.2,0c-0.1-0.2-0.1-0.4-0.1-0.6c0.1-0.3,0.1-0.6,0.1-1
				c0.1-0.1,0.1-0.1,0.2-0.2c-0.1-0.2-0.1-0.4-0.1-0.6c0.2-0.6,0.1-1.2,0.3-1.7c-0.1-0.2,0-0.4,0.1-0.6c0-0.1,0-0.3,0-0.4
				c0,0,0.1-0.1,0.1-0.2c0,0-0.1-0.1-0.1-0.2c0-0.1,0.1-0.2,0.1-0.3c0.1,0,0.2,0.1,0.3,0.1C48.1,3,48,2.8,47.8,2.7
				c0-0.1,0.1-0.2,0.2-0.3c0.2-0.1,0.3-0.3,0.4-0.5c0-0.1-0.1-0.2-0.1-0.2c0.1,0,0.2,0,0.3,0c0.1-0.2,0.2-0.3,0.4-0.4
				c-0.1-0.4,0.4-0.8,0.7-1c0.2,0.1,0.4,0.2,0.6,0.2C50.1,0.4,50,0.3,49.9,0.2z M50.6,0.9C50.8,1,50.9,1.2,51,1.3c0-0.2,0-0.3,0-0.5
				C50.9,0.8,50.8,0.9,50.6,0.9z M51.4,1.1c-0.1,0.1-0.2,0.3-0.3,0.4c0.2-0.1,0.3-0.2,0.5-0.2C51.5,1.2,51.5,1.2,51.4,1.1z
				 M51.1,1.6 M51.3,1.7 M51.8,2 M48.1,2.5 M51.5,2.6c-0.1,0.1,0.1,0.4,0.2,0.3C51.9,2.8,51.7,2.5,51.5,2.6z M52.2,3.3 M52.5,5.1
				c-0.1,0-0.3,0.1-0.2,0.2C52.4,5.5,52.7,5.2,52.5,5.1z M52.1,5.6 M51.7,6.2 M51.7,8 M51.7,10.6 M51.3,11.8
				c-0.1,0.2,0.2,0.3,0.3,0.1C51.7,11.7,51.4,11.7,51.3,11.8z M51.3,12 M47.2,14c0.1,0.1,0.2,0.2,0.4,0.3c0,0,0,0.1,0,0.1
				c0.1,0,0.3,0,0.3,0C47.6,14.2,47.4,14,47.2,14z M47.2,14.3c0.1,0.2,0.1,0.5,0,0.8c0,0,0.1,0.1,0.1,0.1c0.1-0.1,0.2-0.3,0.3-0.4
				C47.5,14.7,47.4,14.5,47.2,14.3z M47.8,14.4 M47,15.9c-0.1,0.2,0.3,0.3,0.3,0.1C47.3,15.9,47.1,15.8,47,15.9z M50.1,16.7
				 M47.1,16.7c-0.1,0.1,0.2,0.2,0.2,0.2C47.4,16.7,47.2,16.6,47.1,16.7z M47,16.8 M47.5,17.1 M47.5,17.4 M46.7,17.7
				c0.1,0.1,0.2,0.2,0.3,0.3c0-0.1,0-0.3,0-0.4c0.1,0,0.2-0.1,0.3-0.2C47.1,17.5,46.9,17.6,46.7,17.7z M50.1,18.7
				c0,0.1,0.3,0.2,0.3,0C50.4,18.6,50.1,18.5,50.1,18.7z M46.5,19.3c-0.2,0.1-0.1,0.3,0.1,0.2C46.9,19.6,46.7,19.2,46.5,19.3z
				 M50,19.5 M46.5,20.3c0,0.1,0.1,0.4,0.2,0.4C46.8,20.6,46.6,20.3,46.5,20.3z M49.6,20.5 M46.9,20.8 M49.5,21 M48.8,21.8
				 M49.1,21.9 M48.2,26.1 M45.8,27.9 M45.8,29.3 M46.2,29.4 M45.8,33.2 M47.2,33.2 M45.9,33.4 M47,35.1 M46.8,35.7 M45.6,39.1
				 M46.6,39.5 M46,40.6 M45.7,40.7c-0.1,0.1,0,0.3,0.2,0.2C46,40.9,45.9,40.6,45.7,40.7z"/>
		</g>
		<g>
			<path fill="#FFFFFF" d="M56.1,1.8c0.2,0,0.4,0,0.5,0C56.8,1.9,56.9,2,57,2.1c0.3-0.2,0.5,0,0.7,0.2c-0.1,0.1-0.2,0.2-0.3,0.4
				c0.1,0,0.2-0.1,0.3-0.2c0.1,0.1,0.2,0.2,0.3,0.3c0,0.1-0.1,0.1-0.1,0.2C58.1,3,58.1,3.1,58,3.3c0,0,0.1,0.1,0.2,0.1
				c0,0.1,0,0.2,0,0.2c0.2,0.1,0.6,0.1,0.7,0.4c-0.1,0-0.2-0.1-0.3-0.1c0.1,0.1,0.2,0.3,0.2,0.4C58.8,4.2,58.9,4.1,59,4
				c-0.1,0.1-0.1,0.3-0.2,0.4c0.1,0.1,0.2,0.2,0.3,0.3c0,0.1,0,0.2,0,0.2c0,0-0.1,0-0.2,0c0.1,0.2,0.1,0.3,0,0.5
				C59,5.5,59,5.6,59.1,5.8C59,5.8,58.9,5.9,58.9,6c0.3,0.1,0.3,0.4,0.2,0.6c0,0,0.1,0.1,0.1,0.1C59.1,6.8,59.1,6.9,59,7
				c-0.2,0.1-0.3,0.2-0.5,0.3c0.2,0.1,0.3,0.3,0.5,0.4c0,0.3,0,0.6,0,0.9c-0.1,0.1-0.1,0.1-0.2,0.2C58.9,8.8,58.9,8.9,59,9
				c-0.1,0.5,0,1-0.2,1.5c0,0-0.1,0.1-0.1,0.1c-0.1,0-0.2-0.1-0.3-0.1c-0.1,0.2,0.3,0.3,0.4,0.4c-0.1,0-0.2,0-0.3,0.1
				c-0.1,0.1-0.2,0.2-0.3,0.3c-0.1-0.1-0.2-0.3-0.4-0.4c0,0.2,0.2,0.3,0.4,0.4c0,0.2-0.1,0.4-0.2,0.5c0,0,0.1,0,0.2,0
				c-0.1,0.2-0.1,0.3,0.1,0.4c0,0.1,0,0.1,0,0.2c-0.1,0.1-0.2,0.1-0.3,0.2c0.2,0.1,0.2,0.3,0.2,0.5c0.1,0.1,0.2,0.1,0.3,0.2
				c-0.1,0.1-0.1,0.2-0.2,0.3c0,0,0.1,0.1,0.1,0.1c-0.1,0-0.2,0.1-0.3,0.2c0,0.1,0.1,0.3,0.1,0.4c-0.1,0-0.2,0-0.3,0
				c0.1,0.1,0.2,0.3,0.3,0.4c-0.2,0-0.3,0-0.5,0c0.1,0.1,0.2,0.2,0.3,0.4c-0.2-0.1-0.3-0.2-0.5-0.3c0,0.2,0.2,0.3,0.3,0.4
				c-0.1,0.1-0.2,0.2-0.3,0.3c0.1,0,0.3-0.1,0.4-0.1c-0.1,0.2-0.2,0.4-0.3,0.6c0,0,0.1,0.1,0.1,0.2c0,0-0.1,0.1-0.1,0.2
				c0,0.1,0.1,0.3,0.1,0.4c-0.1-0.1-0.3-0.2-0.4-0.3c0,0.1,0,0.2,0,0.2c0.1,0,0.2,0,0.3,0c0,0,0,0.1,0,0.2c-0.1,0-0.2,0-0.3,0
				c0.1,0.1,0.2,0.1,0.4,0.2c0,0.1-0.1,0.2-0.1,0.2c-0.1,0-0.2,0.1-0.3,0.2c0.1,0.1,0.2,0.1,0.2,0.2c-0.1,0.1-0.3,0.2-0.4,0.3
				c0,0,0.1,0.1,0.2,0.2c-0.1,0.2-0.3,0.4-0.5,0.6c0.1,0,0.2,0.1,0.2,0.2c0,0.1,0,0.2,0,0.3c-0.1,0-0.2-0.1-0.3-0.1
				c-0.1,0.2-0.1,0.5-0.1,0.8c0.1-0.1,0.2-0.2,0.3-0.3c0,0.2,0,0.4,0,0.5c-0.1,0-0.2-0.1-0.2-0.2c-0.2,0.3-0.4,0.6-0.1,0.9
				c-0.1,0.2,0,0.4,0,0.6c-0.2,0-0.4-0.1-0.6-0.1c0.1,0.1,0.2,0.3,0.3,0.4c0.1,0,0.2-0.1,0.2-0.2c0,0.1,0,0.2,0,0.3
				c-0.1,0-0.2,0-0.2,0c-0.1-0.1-0.2-0.2-0.2-0.4c0,0.2,0,0.3,0,0.5c0.2,0.1,0.3,0.3,0.3,0.5c-0.1,0-0.3,0.1-0.4,0.1
				c0.1,0.1,0.2,0.2,0.4,0.3c0,0,0,0.1,0,0.2C56.1,23,56,23.3,56,23.6c0,0-0.1,0.1-0.2,0.2c0,0.2-0.1,0.3-0.3,0.4
				c0.1,0.1,0.1,0.2,0.2,0.3c0,0.2,0,0.5,0,0.7L55.7,25c-0.2-0.3-0.2,0.2,0,0c0,0.1,0,0.2,0,0.3c0.1,0,0.3-0.1,0.4-0.1
				c0,0,0,0.1,0,0.2c-0.2,0-0.4,0.1-0.5,0.2c0.2,0.3,0.2,0.7,0.1,1c0,0,0.1,0.1,0.1,0.2c-0.1,0-0.3,0-0.4,0c0.1,0.1,0.2,0.2,0.3,0.3
				c-0.1,0.1-0.2,0.1-0.4,0.2c0,0.1,0.1,0.1,0.1,0.2c-0.1,0.2-0.2,0.4-0.3,0.6c0.1,0,0.2-0.1,0.3-0.1c-0.1,0.2-0.2,0.3-0.4,0.4
				c0,0.1,0,0.2,0,0.3c-0.1,0.1-0.1,0.1-0.2,0.2c0.1,0.2,0,0.5,0,0.8c0.2,0.4-0.4,0.8-0.1,1.2c-0.1,0.1-0.1,0.1-0.2,0.2
				c-0.1,0.2-0.2,0.3-0.3,0.4c0.4,0.2,0.1,0.7,0.3,1c-0.1,0.2-0.2,0.3-0.3,0.5c0.1,0,0.2-0.1,0.3-0.1c0,0.1,0,0.3,0,0.5
				c-0.1,0.1-0.2,0.1-0.3,0.2c0.1,0.1,0.2,0.2,0.3,0.3c-0.1,0.2-0.1,0.4,0,0.5c0,0-0.1,0.1-0.1,0.1c0,0.1,0.1,0.3,0.1,0.5
				c-0.2-0.1-0.3-0.3-0.4-0.4c0,0.1,0,0.2,0,0.3c0,0,0.1,0.1,0.2,0.2c0,0.1-0.1,0.3-0.1,0.4c-0.1,0-0.2,0-0.3,0
				c0,0.1,0.1,0.3,0.1,0.4c0,0,0.1,0,0.2,0c0-0.1-0.1-0.2-0.1-0.3c0,0,0.2,0,0.2,0c0,0.2,0.1,0.5,0.1,0.7c-0.3,0-0.5,0-0.8-0.1
				c0.1,0.1,0.3,0.3,0.4,0.4c0,0.1-0.1,0.2-0.2,0.2c0.1,0,0.2,0,0.2,0c0-0.1,0-0.2,0-0.3c0.1,0.1,0.2,0.1,0.3,0.2c0,0.2,0,0.3,0,0.5
				c-0.1,0-0.2,0.1-0.2,0.2c0.1,0.1,0.2,0.2,0.3,0.3c-0.1,0-0.2,0-0.2,0c0,0,0,0.1,0,0.2c0.1,0,0.2-0.1,0.4-0.1
				c-0.1,0.1-0.2,0.2-0.2,0.3c0,0.2-0.1,0.3-0.1,0.5c0,0,0.1,0.1,0.1,0.2c-0.1-0.1-0.3-0.1-0.4-0.2c0.1,0.2,0.2,0.3,0.4,0.4
				c0,0.2,0,0.5-0.1,0.7c0.1,0.1,0.1,0.2,0.2,0.3c-0.1-0.1-0.2-0.1-0.3-0.2c0.1,0.2,0.1,0.4,0,0.5c0,0,0.1,0.1,0.2,0.1
				c-0.1,0.1-0.2,0.3-0.3,0.4c0,0,0.1,0.1,0.1,0.1c-0.1,0.2-0.1,0.3-0.1,0.5c-0.2,0.2-0.4,0.4-0.6,0.6c-0.5,0-0.9-0.2-1.3-0.4
				c0.1-0.1,0.1-0.2,0.2-0.3c-0.1,0-0.2,0.1-0.3,0.1c-0.2-0.1-0.4-0.3-0.6-0.3c0.1-0.3,0.1-0.5-0.2-0.6c0,0,0.1-0.1,0.1-0.1
				c-0.1-0.1-0.2-0.3-0.2-0.4c0,0,0.1-0.1,0.1-0.1c-0.1,0-0.2-0.1-0.2-0.2c0.1-0.1,0.2-0.1,0.2-0.2c-0.1,0-0.2-0.1-0.2-0.2
				c0,0,0.1-0.1,0.2-0.2c0,0-0.1-0.1-0.1-0.2c0.1-0.1,0.2-0.1,0.2-0.2c0.1,0,0.2,0,0.3,0c-0.1-0.1-0.2-0.2-0.3-0.3
				c0-0.2,0-0.4,0-0.7c0.1,0.1,0.3,0.1,0.4,0.1c-0.1-0.2-0.2-0.4-0.2-0.6c0.1,0,0.3,0,0.4,0c-0.1,0-0.2-0.1-0.3-0.2
				c0.2-0.1,0.3-0.2,0.2-0.4c0.1-0.1,0.2-0.2,0.3-0.3c-0.1,0-0.2,0-0.3-0.1c0.1-0.1,0.2-0.2,0.3-0.3c0,0-0.1-0.1-0.1-0.2
				c0.1-0.1,0.1-0.1,0.2-0.2c-0.2-0.4,0-0.8,0.1-1.2c0,0-0.1-0.1-0.1-0.1c0.1-0.3,0.1-0.6,0.2-0.9c0,0-0.1-0.1-0.1-0.1
				c0.1-0.1,0.2-0.3,0.2-0.4c-0.1-0.1-0.1-0.2-0.1-0.3c0.2,0,0.3,0,0.5,0c-0.2-0.1-0.3-0.3-0.3-0.5c0.1-0.1,0.2-0.1,0.3-0.2
				c0-0.1,0-0.2,0-0.2c0,0-0.1-0.1-0.1-0.2c-0.1,0.2-0.2,0.3-0.4,0.5c0-0.3,0.1-0.6,0.2-0.9c0,0,0-0.1-0.1-0.1c0-0.1,0-0.3,0-0.4
				c0.2-0.1,0.4-0.1,0.6-0.1c-0.2-0.2-0.4-0.5-0.6-0.7c0-0.1-0.1-0.2-0.1-0.3c0.1,0,0.2-0.1,0.3-0.1c-0.1-0.1-0.1-0.1-0.2-0.2
				c0-0.3,0-0.6-0.1-0.9c0.1,0,0.3,0.1,0.4,0.1c-0.1-0.2-0.2-0.3-0.3-0.4c0.1,0.1,0.3,0.1,0.4,0.2c-0.1-0.1-0.1-0.2-0.2-0.3
				c0.1-0.2,0.1-0.3,0-0.5c0.2,0,0.3-0.1,0.4-0.3c0-0.1,0-0.2,0-0.3c-0.1,0-0.2,0.1-0.3,0.1c0.1-0.1,0.2-0.2,0.3-0.3
				c-0.1-0.1-0.2-0.3-0.3-0.4c0.1-0.1,0.3-0.2,0.4-0.3c-0.1,0-0.2-0.1-0.3-0.1c0,0,0.1-0.1,0.2-0.2c0.1,0,0.3,0.1,0.4,0.1
				c0.1-0.1,0.2-0.2,0.3-0.3c0.1,0,0.2,0,0.3,0c0-0.1-0.1-0.2-0.1-0.2c-0.2,0.1-0.3,0.2-0.5,0.3c-0.1-0.1-0.2-0.2-0.3-0.3
				c0,0.1-0.1,0.2-0.1,0.3c-0.1-0.1-0.3-0.3-0.4-0.5c0.1,0,0.3,0,0.4,0c0-0.2,0.1-0.5-0.2-0.6c0-0.1,0-0.3,0-0.4c0.1,0,0.2,0,0.2,0
				c-0.1-0.1-0.2-0.2-0.3-0.3c0.2,0,0.4,0.1,0.5,0.2c-0.2-0.2-0.3-0.5-0.6-0.6c0.1,0,0.2,0,0.3,0c0.1,0.1,0.2,0.2,0.3,0.3
				c-0.1-0.2-0.2-0.4-0.5-0.6c0.1-0.2,0.2-0.3,0.4-0.5c0-0.1-0.1-0.2-0.1-0.3c0.1,0.1,0.2,0.1,0.4,0.2c-0.1-0.1-0.1-0.2-0.2-0.3
				c-0.1-0.1-0.2-0.1-0.3-0.2c0,0,0.1-0.2,0.2-0.2c-0.1-0.2-0.4-0.5,0-0.6c0-0.1-0.1-0.3-0.1-0.4c0.1,0,0.2,0.1,0.3,0.2
				c0-0.1,0-0.3,0-0.3c0,0-0.1,0.1-0.2,0.2c0-0.2-0.1-0.4-0.1-0.7c0.1,0,0.2-0.1,0.3-0.1c-0.1,0-0.2,0-0.3,0c0-0.3-0.1-0.6-0.1-1
				c0.1,0,0.2,0,0.2,0c0-0.1-0.1-0.3-0.1-0.4c0.1,0.1,0.3,0.2,0.4,0.3c-0.1-0.1-0.1-0.2-0.3-0.3c0-0.1,0-0.2,0-0.3
				c0.1,0,0.2,0,0.3,0c-0.1-0.2-0.2-0.3-0.2-0.5c0.1-0.1,0.3-0.1,0.4-0.2c0-0.2,0-0.3,0-0.5c-0.1,0-0.2,0.1-0.3,0.1
				c0-0.2,0-0.5,0.1-0.7c0.1,0,0.2,0,0.3,0c0-0.1-0.1-0.2-0.1-0.3c-0.1,0-0.2,0.1-0.3,0.1c0.2-0.2,0.5-0.4,0.3-0.7
				c0.1-0.1,0.1-0.2,0.2-0.3c0.1,0,0.3,0,0.3,0c-0.1-0.1-0.2-0.1-0.3-0.2c0-0.1-0.1-0.3-0.1-0.4c0.1-0.1,0.2-0.2,0.2-0.3
				c-0.5-0.3,0.1-0.9-0.2-1.4c0.1-0.1,0.2-0.2,0.3-0.2c-0.3-0.4-0.2-0.8,0-1.1c0-0.3-0.2-0.7,0.2-0.9c0,0-0.1-0.1-0.1-0.1
				c0.1-0.1,0.1-0.2,0.2-0.3c0-0.2,0.1-0.5,0.1-0.7c-0.2-0.5,0.2-1,0.1-1.6c0.1-0.4,0.1-0.9,0.1-1.4c0-0.2,0-0.3-0.1-0.5
				c0-0.3,0.1-0.6,0.1-0.8c0,0,0-0.1-0.1-0.1c0.1-0.2,0.1-0.3,0.1-0.5c0-0.1,0.1-0.2,0.1-0.3c-0.1-0.5,0.1-1.1,0.6-1.4
				c0-0.1-0.1-0.2-0.1-0.3c0.1,0,0.3,0.1,0.4,0.1c0-0.1,0.1-0.3,0.1-0.4c0.1,0,0.2-0.1,0.2-0.1C56,2,56.1,1.9,56.1,1.8z M56.6,2
				c-0.1,0.1,0,0.3,0.2,0.2C56.9,2.2,56.8,2,56.6,2z M54.8,5.5 M54.9,5.8 M57,6.6 M56.7,7.3 M56.1,7.6c-0.1,0.1,0.1,0.3,0.2,0.2
				C56.4,7.7,56.2,7.5,56.1,7.6z M58.8,7.8 M58.7,9.4 M58.8,9.7 M58.3,10.2c-0.2,0-0.1,0.4,0.1,0.3C58.5,10.4,58.5,10.1,58.3,10.2z
				 M57.5,11c0.1,0,0.2,0,0.2-0.2C57.5,10.8,57.4,10.9,57.5,11z M54.1,11 M56.8,11.2 M57.9,11.5c-0.1,0.1-0.2,0.2-0.2,0.4
				C57.8,11.8,58.1,11.5,57.9,11.5z M57.1,11.5 M57.5,11.6 M57.7,12.5 M57.7,13.2 M58,13.2c-0.1,0.1,0.1,0.2,0.2,0.2
				C58.4,13.2,58.1,13.1,58,13.2z M57.8,13.7 M54.5,14 M56.9,14.3c-0.1,0.1-0.2,0.2-0.2,0.2c-0.1,0-0.2-0.1-0.3-0.2
				c0.1,0.1,0.2,0.2,0.3,0.3c-0.1,0-0.2,0-0.3,0c0.2,0.2,0.5,0.3,0.8,0.3c0-0.1,0-0.2,0-0.2c-0.1,0-0.2,0-0.3,0
				c0-0.1-0.1-0.2-0.2-0.2c0.1,0,0.3,0,0.4,0C57.1,14.5,57,14.4,56.9,14.3z M54.4,15.1 M57.3,15.6c-0.1,0.1,0,0.3,0.2,0.2
				C57.5,15.8,57.4,15.5,57.3,15.6z M54.1,15.9 M57.5,16 M56.3,16.1 M53.6,16.1 M56.7,16.2 M56.8,16.8c0.2,0,0.2-0.3,0.2-0.4
				C56.8,16.4,56.6,16.7,56.8,16.8z M53.7,16.7 M53.5,17.2c-0.1,0.1,0,0.3,0.1,0.2C53.8,17.3,53.7,17.1,53.5,17.2z M53.2,18.6
				c-0.2,0-0.1,0.3,0.1,0.3C53.5,18.8,53.4,18.5,53.2,18.6z M55.7,23.5 M53.1,23.5 M53.2,23.9 M53.3,24.3c0.3,0,0.6-0.1,0.8-0.3
				C53.8,24,53.5,24.1,53.3,24.3z M53.5,24.5c0.1,0.1,0.3,0.1,0.4,0.2c0-0.1,0-0.3,0-0.4C53.8,24.3,53.7,24.4,53.5,24.5z M55.4,24.6
				c-0.1,0.2,0.3,0.2,0.2,0C55.6,24.6,55.5,24.6,55.4,24.6z M53.8,25 M53.5,25.2 M55.2,25.6c-0.1,0.1-0.1,0.4,0.1,0.4
				C55.3,25.8,55.3,25.6,55.2,25.6z M55.5,25.9 M53.7,26.1 M53.3,26.8 M52.6,29c0.1,0.1,0.2,0.2,0.2,0.2c0.1-0.2,0.2-0.5,0.3-0.7
				C52.9,28.6,52.7,28.7,52.6,29z M52.4,28.9 M52.6,30.4c0.1,0,0.2,0,0.1-0.1C52.6,30,52.3,30.2,52.6,30.4z M53.9,33.4 M54.1,36.4
				c0.1,0,0.2,0,0.2-0.2C54.1,36.2,54.1,36.3,54.1,36.4z M53.9,38.6 M53.8,39.3 M51.2,39.4 M53.1,40 M53.5,40.6
				c-0.1,0.1-0.1,0.2-0.1,0.4C53.5,41,53.8,40.5,53.5,40.6z M53,40.7c-0.1,0.1,0.1,0.4,0.2,0.2C53.3,40.8,53.1,40.5,53,40.7z"/>
		</g>
		<g>
			<path fill="#FFFFFF" d="M22.2,3.2c0.4-0.2,0.8-0.4,1.1-0.7c0.1,0.3,0.3,0.2,0.3,0c0.2,0.1,0.3,0.2,0.5,0.3c0,0,0.1,0,0.2,0
				c0,0,0.1,0.1,0.2,0.2c0.4,0.1,0.7,0.4,0.9,0.7c0.2,0.1,0.3,0.2,0.5,0.3c-0.1,0-0.2,0-0.3,0c-0.1,0.1-0.2,0.2-0.3,0.3
				c0.2,0,0.4,0,0.6,0c0,0.1-0.1,0.3-0.1,0.4c0.1,0.1,0.2,0.2,0.2,0.2c0,0.3,0.1,0.6,0.1,1c-0.1,0.1-0.2,0.2-0.3,0.4
				c0.2,0,0.3-0.1,0.5-0.1c0,0.1,0,0.2-0.1,0.4c0,0.2,0,0.3,0,0.5c0,0.1,0,0.3,0,0.4c-0.1,0-0.2,0.1-0.3,0.1c0.1,0,0.2,0.1,0.3,0.1
				c-0.1,0.1-0.3,0.3-0.5,0.4c-0.1,0.1-0.1,0.2-0.1,0.3C25.7,8.2,25.9,8.1,26,8c0,0.2,0,0.5-0.1,0.7c0,0,0.1,0.1,0.1,0.1
				c-0.1,0.2-0.1,0.3,0,0.5c-0.2,0-0.5,0.1-0.5,0.3c0.1,0,0.2-0.1,0.4-0.1c0,0.3,0,0.5-0.1,0.8c0.1,0,0.2,0,0.2,0
				c-0.2,0.3-0.2,0.6-0.2,0.9c0,0-0.1,0.1-0.2,0.1c0.1,0.2,0,0.4-0.1,0.5c-0.1,0.1-0.2,0.2-0.4,0.2c0.1,0.1,0.3,0.2,0.4,0.3
				c-0.3,0.1-0.7,0.1-0.8,0.4c0.2,0,0.4,0,0.6-0.1c-0.1,0.2-0.3,0.3-0.2,0.5c-0.1,0-0.2,0-0.2,0c0,0.1-0.1,0.2-0.1,0.3
				c0.2,0.3,0,0.6-0.2,0.7c0,0.1,0.1,0.1,0.1,0.2c-0.1,0-0.2,0.1-0.2,0.2c0,0.1,0,0.3,0,0.4c-0.1,0.2-0.3,0.3-0.4,0.5
				c0,0.1,0,0.2,0,0.2c-0.1,0-0.2,0-0.2,0c0.2,0.1,0.2,0.4,0.3,0.6c0,0.1-0.1,0.2-0.1,0.3c-0.1,0-0.2,0-0.3,0c0,0.1,0,0.2,0,0.3
				c-0.3,0.1-0.4,0.3-0.5,0.6c0.2-0.1,0.4-0.2,0.6-0.3c0,0.4-0.3,0.7-0.7,0.9c0.1,0,0.3,0.1,0.5,0.1c-0.1,0.1-0.1,0.2-0.1,0.3
				c-0.1,0-0.3,0.1-0.4,0.1c0.1,0.1,0.1,0.1,0.2,0.2c0,0.1,0,0.2,0,0.3c-0.1,0.1-0.2,0.2-0.3,0.3c0,0,0.1,0.1,0.1,0.2
				c-0.1,0-0.2,0.1-0.3,0.1c0,0.1,0.1,0.2,0.1,0.3c-0.2,0-0.3-0.1-0.5-0.1c0.1,0.1,0.2,0.2,0.2,0.3c0,0.1,0,0.2,0,0.3
				c-0.2-0.1-0.3-0.2-0.4-0.3c0.1,0.2,0.3,0.3,0.4,0.5c-0.2,0.1-0.3,0.3-0.5,0.4c0.1,0.1,0.2,0.2,0.3,0.3c-0.1,0.1-0.2,0.1-0.3,0.2
				c0,0.1,0.1,0.3,0.1,0.4c-0.1,0-0.2-0.1-0.3-0.1c0,0.1-0.1,0.2-0.1,0.3c-0.1,0-0.2-0.1-0.3-0.1c0.1,0.2,0.3,0.3,0.4,0.5
				c0,0.1-0.1,0.2-0.1,0.3c-0.1,0-0.1,0.1-0.2,0.2c0,0,0.1,0.1,0.1,0.2c-0.1,0-0.2,0-0.2,0c0,0.1,0,0.2,0,0.3c0.1,0,0.2,0.1,0.2,0.2
				c-0.2,0.2-0.3,0.4-0.5,0.6c0,0.1,0.1,0.2,0.1,0.4c-0.2-0.1-0.3-0.2-0.5-0.3c0,0.1,0,0.3,0,0.3c0.1,0,0.2,0,0.3,0l0,0.1
				c-0.1,0-0.3,0-0.3,0c0.4,0.1,0.2,0.3,0,0.5c0.1,0,0.3,0.1,0.4,0.1c-0.1,0.1-0.3,0.2-0.4,0.2c0,0.1,0.1,0.2,0.1,0.2
				c0,0-0.1,0.1-0.2,0.2c0,0,0.1,0.1,0.1,0.2c-0.2,0.1-0.5,0.2-0.7,0.4c0.2,0,0.4-0.1,0.6-0.1c0,0-0.2,0.1-0.2,0.2
				c0,0.1-0.1,0.3-0.2,0.4c0.1,0,0.2,0,0.4,0c-0.1,0.1-0.1,0.2-0.2,0.3c0,0,0.1,0.1,0.1,0.2c-0.1,0.1-0.2,0.1-0.2,0.2
				c0.1,0,0.2,0.1,0.2,0.2c-0.1,0.1-0.2,0.2-0.3,0.4c-0.1,0-0.2-0.1-0.3-0.1c0.1,0.2,0.2,0.3,0.3,0.5c-0.1,0.1-0.3,0.1-0.4,0.2
				c0.1,0.1,0.2,0.1,0.3,0.2c-0.1,0.1-0.2,0.1-0.2,0.2c0,0.2,0.1,0.3,0.1,0.5c-0.1,0-0.2,0.1-0.3,0.1c0.1,0.3,0,0.6,0,0.8
				c0,0-0.1,0.1-0.2,0.1c0.2,0.4-0.2,0.7-0.4,0.9c0.1,0,0.2-0.1,0.3-0.1c0,0.1,0,0.2,0,0.3c-0.1,0-0.2,0-0.2,0
				c0,0.1,0.1,0.2,0.2,0.2c0,0-0.1,0.1-0.1,0.1c0,0.1,0.1,0.2,0.1,0.3c-0.1,0-0.2-0.1-0.3-0.2c0.1,0.2,0.1,0.3,0.2,0.5
				c-0.4,0.1-0.3,0.3-0.1,0.5c-0.1,0-0.2,0.1-0.3,0.1c0.2,0.1,0.2,0.3,0.1,0.6c0.1,0.1,0.2,0.2,0.3,0.3c0.1,0,0.2-0.1,0.3-0.1
				c0,0-0.1-0.1-0.1-0.1c0.2-0.1,0.3-0.3,0.5-0.4c0,0-0.1-0.1-0.1-0.1c0.2-0.1,0.4-0.2,0.5-0.4c0,0,0.1,0,0.2,0
				c0.2-0.2,0.5-0.5,0.8-0.6c0-0.1,0-0.2,0-0.3c0.2-0.1,0.3-0.2,0.5-0.2c0.1-0.2,0.3-0.4,0.5-0.6c0-0.1,0-0.2,0-0.3
				c0.2-0.2,0.3-0.4,0.5-0.6c0-0.1,0-0.2,0-0.2c0.1,0,0.2-0.1,0.2-0.2c0,0,0-0.1,0-0.2c0.3-0.1,0.3-0.4,0.3-0.7
				c0.1,0,0.2-0.1,0.2-0.1c0.3-0.4,0.5-0.8,0.8-1.2c0,0-0.1-0.1-0.1-0.1c0.1,0,0.2-0.1,0.3-0.1c0.3-0.4,0.7-0.6,1-1
				c0.1-0.3,0.3-0.6,0.5-0.8c0.1,0,0.2,0,0.3,0c-0.3-0.5,0.5-0.5,0.4-1c0.1-0.1,0.2-0.2,0.3-0.4c0.3-0.2,0.4-0.5,0.7-0.7
				c0-0.1,0-0.2,0-0.3c0.2-0.1,0.3-0.3,0.2-0.5c0,0,0.1,0.1,0.1,0.2c0.2-0.6,0.9-0.8,0.9-1.5c0.1,0.1,0.3,0.1,0.4,0.1
				c-0.1-0.1-0.2-0.2-0.3-0.3c0.1-0.1,0.1-0.2,0.2-0.3c0.1,0,0.2,0,0.3,0c0,0,0.1-0.1,0.2-0.2c0.1,0,0.2,0,0.4,0c0-0.1,0-0.2,0-0.2
				c-0.2,0-0.3,0-0.5,0.1c0.1-0.2,0.2-0.4,0.2-0.6c0.1,0,0.3,0,0.4,0c0-0.1,0-0.2,0-0.2c0,0,0.1,0.1,0.1,0.1
				c0.1-0.2,0.3-0.3,0.5-0.3c0,0-0.1-0.1-0.1-0.1c0.1,0,0.2,0,0.2,0c-0.1-0.1-0.1-0.2-0.2-0.3c0.3-0.4,0.5-0.8,0.9-1.1
				c0-0.1,0-0.2,0-0.3c0.1,0,0.3,0,0.4,0c-0.1,0.1-0.2,0.2-0.3,0.3c0.2,0,0.3-0.2,0.4-0.3c0.1-0.1,0.2-0.1,0.3-0.2
				c-0.1-0.1-0.2-0.1-0.2-0.2c0,0.1,0,0.2,0,0.3c-0.1,0-0.2-0.1-0.2-0.2c0.2-0.2,0.3-0.4,0.5-0.6c0-0.2-0.1-0.4,0.2-0.5
				c0.4,0,0.8-0.1,1.1-0.3c0.4-0.1,0.7,0.2,1,0.1c0,0,0.1,0.1,0.1,0.1c0.1,0,0.2-0.1,0.2-0.2c0.1,0.2,0.3,0.4,0.4,0.6
				c0.1-0.1,0.2-0.1,0.3-0.2c0.2,0.3,0.4,0.6,0.7,0.7c0,0.1-0.1,0.1-0.1,0.2c0.1,0.1,0.2,0.2,0.2,0.2c-0.1,0-0.3,0-0.4,0
				c0.1,0.1,0.2,0.2,0.3,0.3c-0.1,0-0.2,0-0.3,0.1c0.1,0.2,0.2,0.5,0.2,0.7c-0.1,0-0.2,0.1-0.3,0.1c0,0.1,0,0.2,0,0.3
				c-0.1,0-0.2,0.1-0.2,0.2c0,0,0.1,0.1,0.1,0.2c0,0.1-0.1,0.2-0.2,0.2c0,0,0.1,0.1,0.1,0.1c-0.3,0.1-0.5,0.3-0.8,0.4
				c0.1,0,0.2,0,0.3,0.1c-0.1,0.1-0.2,0.1-0.3,0.2c0,0.1-0.1,0.2-0.2,0.3c-0.1,0-0.2,0.1-0.4,0.1c-0.2,0.5-0.3,1-0.5,1.5
				c-0.1,0-0.1-0.1-0.2-0.1c-0.1,0.1-0.2,0.1-0.3,0.2c0,0.1-0.1,0.2-0.1,0.3c-0.1,0-0.2-0.1-0.3-0.1c0.1,0.1,0.2,0.2,0.3,0.3
				c0,0.2-0.1,0.3-0.1,0.5c-0.1,0-0.2,0-0.3,0c0,0.1,0.1,0.3,0.1,0.4c-0.3,0.2-0.6,0.5-0.8,0.8c-0.3,0.2-0.4,0.4-0.6,0.7
				c-0.4,0-0.5,0.3-0.3,0.6c-0.1-0.1-0.3-0.2-0.4-0.3c0,0.1,0.1,0.2,0.1,0.3c0,0-0.1,0.1-0.2,0.2c-0.1,0-0.2,0-0.3,0
				c0.1,0.1,0.2,0.2,0.2,0.2c-0.2,0.1-0.3,0.3-0.4,0.5c0,0-0.2,0-0.2,0c0,0-0.1,0.1-0.2,0.2c0.1,0,0.3,0,0.3,0c0,0.1,0,0.2,0,0.3
				c-0.2-0.1-0.4-0.1-0.6-0.2c0,0.1,0,0.2,0,0.2c0.1,0,0.2-0.1,0.3-0.1c-0.1,0.2-0.3,0.4-0.5,0.6c-0.1,0-0.1-0.1-0.2-0.1
				c-0.1,0.1-0.2,0.2-0.3,0.3c-0.1,0-0.2,0-0.3,0c-0.3,0.2-0.7,0.4-1.1,0.4c0,0.1,0.1,0.2,0.1,0.2c-0.1,0.1-0.2,0.2-0.3,0.3
				c0,0-0.1-0.1-0.2-0.2c-0.1,0-0.3,0-0.4,0c0.1,0.2,0.3,0.3,0.4,0.4c-0.1,0-0.3,0.1-0.4,0.1c0.1,0.1,0.3,0.3,0.4,0.4
				c-0.1,0.3,0,0.7,0,1c-0.1,0.1-0.2,0.2-0.3,0.3c0.1,0,0.3,0,0.4,0c0,0.1-0.1,0.2-0.2,0.2c0.1,0.1,0.2,0.2,0.2,0.2
				c0,0.1,0,0.2,0,0.2c0.2,0.2,0.4,0.4,0.6,0.6c0.1,0.1,0.1,0.2,0.2,0.3c0,0-0.1,0.1-0.1,0.2c0.1,0,0.2-0.1,0.2-0.1
				c0.1,0.2,0.2,0.3,0.3,0.5c0,0.1,0,0.2,0,0.3c0.1,0,0.2-0.1,0.2-0.2c0.1,0.1,0.1,0.2,0.2,0.3c-0.2,0.1-0.3,0.1-0.4,0.2
				c0.2,0,0.4,0,0.5-0.1c0.1,0.2,0.3,0.4,0.4,0.6c0.1,0,0.1-0.1,0.2-0.1c0.2,0.2,0.4,0.5,0.5,0.7c0.1,0,0.2,0,0.3,0
				c0,0.1,0,0.2,0,0.2c0,0,0.1-0.1,0.2-0.1c0.1,0.1,0.2,0.3,0.3,0.4c0,0,0.1,0,0.2,0c0.1,0.1,0.2,0.2,0.2,0.3c0,0,0,0.1,0,0.2
				c0.3,0.3,0.8,0.6,0.7,1.1c0,0,0.1-0.1,0.1-0.2c0.1,0.4,0.4,0.8,0.5,1.3c-0.1,0-0.2,0.1-0.2,0.2c0.1,0.3,0,0.6,0,1
				c-0.1,0.1-0.2,0.1-0.4,0.2c0.1,0,0.3,0,0.3,0c-0.1,0.2-0.1,0.3,0,0.5c0,0.1-0.1,0.2-0.1,0.3c0.1,0,0.2-0.1,0.2-0.2
				c0,0.1,0,0.2,0,0.3c0,0-0.1,0.1-0.2,0.2c-0.1,0-0.2-0.1-0.3-0.2c0,0.1,0.1,0.3,0.1,0.4c-0.1,0.1-0.1,0.1-0.2,0.2
				c0,0.1,0,0.2,0,0.2c-0.4,0.1-0.9,0.5-1.3,0.1c-0.1,0-0.2,0-0.4,0c-0.1-0.2-0.3-0.3-0.5-0.3c0,0-0.1-0.1-0.1-0.2
				c-0.1,0-0.2,0.1-0.3,0.1c0-0.1,0-0.2,0-0.2c-0.1,0-0.3,0.1-0.4,0.1c-0.1-0.1-0.1-0.2-0.2-0.3c-0.1,0-0.3,0-0.3,0
				c0.1-0.1,0.1-0.2,0.2-0.3c-0.3,0-0.6-0.2-0.8-0.4c-0.6-0.2-1-1-1.7-0.9c-0.1-0.2-0.2-0.5-0.1-0.7c-0.1,0.1-0.2,0.1-0.4,0.2
				c0-0.1,0-0.3,0-0.4c-0.1-0.1-0.3-0.3-0.4-0.5c0.1,0,0.2,0,0.2,0c0,0.1,0,0.2,0,0.2c0.1,0,0.2-0.1,0.2-0.2
				c-0.1-0.1-0.2-0.1-0.4-0.2c0-0.1,0.1-0.2,0.1-0.3c-0.2-0.1-0.3-0.2-0.5-0.3c0-0.1,0-0.2,0-0.4c-0.1,0-0.2,0-0.4,0
				c-0.1-0.1-0.2-0.3-0.4-0.4c0,0-0.1,0.1-0.2,0.1c0-0.1,0-0.2,0-0.2c-0.1,0-0.2,0-0.3,0c-0.1-0.1-0.2-0.2-0.3-0.3
				c-0.1,0-0.2,0-0.3,0c-0.1-0.1-0.3-0.3-0.4-0.4c-0.1,0-0.2,0-0.3,0c0-0.1,0-0.3,0-0.4c-0.2,0-0.3,0.1-0.5,0.1
				c-0.1,0.1-0.2,0.2-0.3,0.3c-0.1,0-0.2,0-0.2,0c0,0-0.1,0.1-0.2,0.2c-0.1,0-0.3,0-0.4,0c-0.1,0.1-0.1,0.2-0.2,0.2
				c-0.5,0.4-1,0.8-1.6,1c0,0.3,0,0.6,0,0.9c0.1,0.1,0.2,0.2,0.3,0.3c-0.1,0-0.2,0.1-0.2,0.2c0.1,0.1,0.2,0.1,0.2,0.2
				c0,0-0.1,0.1-0.1,0.1c0,0.1,0.1,0.3,0.1,0.4c0,0,0.2,0.1,0.2,0.2c0,0.5-0.5,0.9-0.3,1.4c-0.1,0.2-0.1,0.4-0.2,0.6
				c-0.1,0.1-0.2,0.2-0.3,0.3c-0.2-0.1-0.3-0.1-0.5-0.2C19,40.9,19,41,18.9,41.2c-0.3,0-0.7-0.1-1-0.2c0,0.1,0.1,0.2,0.2,0.2
				c-0.1,0-0.3,0-0.4,0.1c-0.1,0-0.2-0.1-0.3-0.1c0,0.1,0.1,0.2,0.2,0.3c-0.2-0.1-0.4-0.1-0.7-0.2c-0.5,0.1-0.8-0.4-1.2-0.6
				c0,0-0.1,0-0.2,0c-0.1-0.1-0.2-0.2-0.3-0.2c-0.2-0.3-0.3-0.5-0.5-0.7c0,0,0.1-0.1,0.1-0.1c-0.1-0.2-0.1-0.4-0.2-0.5
				c0.1,0,0.2,0,0.2,0c-0.1-0.1-0.2-0.2-0.3-0.3c0-0.1-0.1-0.3-0.1-0.4c0.1,0.1,0.2,0.1,0.3,0.2c-0.1-0.3-0.1-0.7-0.3-1
				c0.1-0.2,0.1-0.3,0.2-0.5c-0.1-0.1-0.1-0.2-0.2-0.3c0.2-0.3,0.3-0.6,0.4-0.9c-0.1-0.4-0.1-0.9,0.1-1.3c0,0-0.1-0.1-0.1-0.1
				c0.1-0.3,0.2-0.7,0.5-0.9c-0.1,0-0.2,0-0.3-0.1c0.1-0.1,0.2-0.1,0.3-0.2c0,0-0.1-0.1-0.1-0.1c0.1-0.2,0.2-0.3,0.3-0.5
				c0-0.2,0-0.3,0-0.5c0.1-0.1,0.2-0.2,0.3-0.3c0,0-0.1-0.1-0.1-0.2c0.1-0.2,0.1-0.4,0.2-0.7c-0.4-0.1-0.1-0.5,0.1-0.6
				c-0.1-0.1-0.2-0.3-0.3-0.4c0,0,0.1-0.1,0.1-0.1c0,0-0.1-0.1-0.2-0.2c0.1,0,0.2-0.1,0.3-0.1c0-0.2,0-0.4,0.1-0.5
				c-0.1-0.1-0.1-0.1-0.2-0.2c0.1-0.1,0.2-0.2,0.3-0.3c-0.1-0.2-0.1-0.3,0.1-0.3c0-0.4,0-0.7,0-1.1c0.1,0,0.2-0.1,0.2-0.2
				c-0.2-0.7,0.1-1.3,0.3-1.9c0,0,0.1,0,0.2,0c0-0.2-0.1-0.4-0.1-0.6c0.1,0,0.3,0,0.4,0c0-0.1-0.1-0.2-0.1-0.3
				c0.1-0.2,0.1-0.4,0.1-0.6c0.1-0.1,0.2-0.2,0.3-0.3c0-0.2-0.1-0.4-0.2-0.6c0-0.1,0.1-0.2,0.1-0.3c0,0,0.1-0.1,0.2-0.2
				c0.1-0.5,0.2-1,0.5-1.5c0,0-0.1-0.1-0.1-0.1c0.1-0.3,0.2-0.5,0.2-0.8c0-0.2-0.1-0.5,0.2-0.5c0-0.1,0-0.2,0-0.3
				c0.1-0.1,0.1-0.1,0.2-0.2c-0.1-0.2-0.1-0.4,0-0.6c0,0-0.1-0.1-0.1-0.1c0,0,0.1-0.1,0.2-0.2c0,0-0.1-0.1-0.2-0.2
				c0.1,0,0.2-0.1,0.3-0.1c0.1-0.2,0.1-0.5,0-0.8c0,0,0.1,0,0.2,0c-0.2-0.6,0.2-1.2,0.4-1.8c0-0.2-0.1-0.4-0.1-0.6
				c0.1-0.1,0.2-0.3,0.3-0.4c0-0.1-0.1-0.1-0.2-0.2c0.1,0,0.2,0,0.2,0c-0.1-0.2-0.1-0.5-0.1-0.7c0,0,0.1,0,0.2,0
				c0-0.1-0.1-0.2-0.1-0.3c0.1,0,0.2,0,0.3,0c0-0.1,0.1-0.2,0.1-0.2c-0.1,0-0.3,0-0.4,0.1c0.1-0.1,0.3-0.2,0.4-0.3
				c-0.1,0-0.2,0-0.3,0c0-0.3,0.1-0.5,0.1-0.7c0.1,0,0.2-0.1,0.3-0.1c-0.1,0-0.3,0-0.4,0c0.1-0.6,0.2-1.2,0.3-1.7
				c0.1-0.1,0.2-0.1,0.3-0.2c-0.1-0.1-0.5-0.3-0.2-0.5c0.3-0.1,0.1-0.3,0-0.4c0.2-0.2,0.2-0.6,0.5-0.7c-0.1-0.1-0.2-0.1-0.2-0.2
				c0.1-0.1,0.1-0.2,0.2-0.4c0,0-0.1-0.1-0.1-0.2C20.9,7,21,7,21.1,6.9c0-0.1,0-0.3-0.1-0.4c0.1-0.1,0.1-0.2,0.2-0.3
				c0-0.1-0.1-0.2-0.1-0.3c0,0,0.1-0.1,0.1-0.1c-0.1-0.1-0.2-0.2-0.2-0.2c0.1-0.2,0.3-0.3,0.4-0.5c-0.1-0.1-0.1-0.2-0.2-0.2
				c0-0.1,0.1-0.1,0.1-0.2c0.1-0.1,0.2-0.2,0.4-0.2c0-0.3,0.2-0.6,0.3-0.8c0.1,0.1,0.2,0.2,0.3,0.3c0-0.1,0.1-0.1,0.1-0.2
				C22.2,3.5,22.2,3.3,22.2,3.2z M21.5,4.7 M25.5,4.8 M25.3,5.7 M25.9,7.7c-0.1,0-0.3,0-0.3,0.1C25.6,8.1,26.1,7.8,25.9,7.7z
				 M25.3,7.9 M20.9,8.2 M25.4,8.4 M25.5,8.6c-0.1,0.1,0.1,0.3,0.2,0.2C25.8,8.6,25.6,8.5,25.5,8.6z M25.7,8.9 M25.3,9.1 M20.5,9.9
				c0.1,0.1,0.4,0.1,0.6,0.2C21.1,9.9,20.7,9.8,20.5,9.9z M25.4,10.2 M25.5,10.7c-0.1,0.1-0.4,0.2-0.4,0.4
				C25.3,11.1,25.6,10.8,25.5,10.7z M21,11.2c0.1-0.1,0.1-0.3,0-0.4C20.7,10.7,20.8,11.3,21,11.2z M20.5,11.6c0,0.1,0.2,0.2,0.3,0.1
				C20.8,11.6,20.5,11.5,20.5,11.6z M24.5,13.5 M20,13.8 M19.9,14.3c0.1,0,0.2,0,0.2-0.2C19.9,14.1,19.9,14.2,19.9,14.3z M19.7,15.4
				c0.1,0.1,0.3,0.1,0.4-0.1C20.1,15.1,19.6,15.2,19.7,15.4z M23.6,15.8 M20.6,16 M23.4,16 M35.7,17.1 M22.8,17 M22.2,17.1 M22,18.2
				 M35.4,18.6 M35.5,19.5 M19.4,19.2 M35.2,19.6 M21.5,19.5c0.1,0,0.2,0,0.2-0.2C21.6,19.3,21.5,19.4,21.5,19.5z M34.5,19.9
				 M18.7,19.9c-0.1,0.1,0,0.3,0.1,0.2C18.9,20,18.8,19.7,18.7,19.9z M29.8,20.3 M22,20.4 M21.7,21.1c0.1-0.1,0.2-0.3,0-0.3
				C21.5,20.7,21.4,21.1,21.7,21.1z M29.1,21.3 M30.7,21.8 M21.1,22.7 M20.6,22.8 M31.9,23.8 M20.8,23.6 M17.3,24.8
				c0.1,0,0.2,0,0.2-0.2C17.4,24.6,17.3,24.6,17.3,24.8z M19.6,24.9 M20.1,25.6 M20.1,25.9 M30.6,26.1 M19.7,26.6 M19.6,27.2
				 M16.7,28 M16.6,28.3 M26.8,29.6 M27.3,30.5 M18.6,31.5 M21.8,31.8 M27.8,32.1 M28.5,32.9 M29,33.9 M30.2,34.6
				c0.1,0.2,0.1,0.3,0.2,0.5C30.6,34.9,30.5,34.7,30.2,34.6z M30.3,35.3c-0.2,0.2,0.4,0.2,0.3,0C30.6,35.2,30.4,35.2,30.3,35.3z
				 M21.2,35.1 M26.2,36.8 M14.8,36.6 M31.2,39.7 M15.1,39.4 M19.7,39.6 M31.9,40 M30.6,40.7 M32.4,40.7 M31.5,41.1c0,0,0,0.1,0,0.1
				c0.2,0,0.4-0.1,0.6-0.1c0-0.1,0.1-0.2,0.2-0.2C32,41.1,31.8,41.1,31.5,41.1z"/>
		</g>
		<g>
			<path fill="#FFFFFF" d="M67.2,14.8c0.2-0.1,0.4-0.2,0.6-0.3c0,0.1-0.1,0.1-0.2,0.2c0.2,0.1,0.4,0.1,0.6,0.3
				c0.1-0.1,0.1-0.1,0.2-0.2c0.1,0,0.2,0,0.3,0.1c-0.1,0.2-0.3,0.3-0.5,0.3c0.1,0.1,0.1,0.3,0.2,0.4c0.1,0,0.2,0,0.3,0
				c0-0.1-0.1-0.2-0.1-0.3c0.1,0,0.2-0.1,0.3-0.1c0.1,0.1,0.3,0.3,0.4,0.4c0-0.1,0-0.2,0-0.3c0.1,0,0.2,0,0.3,0
				c0.1,0.1,0.2,0.2,0.3,0.3c0.1,0,0.3,0.1,0.3,0.2c0.1,0,0.2,0,0.3,0c0.2,0.2,0.5,0.3,0.7,0.5c0,0.1-0.1,0.2-0.2,0.3
				c0.1-0.1,0.2-0.1,0.3-0.2c0.2,0.2,0.4,0.5,0.6,0.7c0-0.5,0.6-0.6,1-0.4c0,0-0.1,0.1-0.2,0.2c0.3,0,0.6,0.1,0.6,0.4
				c0,0,0.1,0.1,0.1,0.2c0,0.3,0.4,0.8,0,1c0.1,0,0.3-0.1,0.4-0.1c0,0.1,0.1,0.2,0.1,0.3c-0.2,0.2-0.1,0.4,0.1,0.6
				c-0.3,0.1-0.4,0.4,0,0.5c0.2,0.4,0.1,0.9,0.1,1.3c-0.1,0.1-0.2,0.1-0.3,0.2c0,0,0.1,0.1,0.1,0.1c-0.1,0.3-0.1,0.6-0.1,0.9
				c-0.1,0.3-0.1,0.6-0.2,0.9c0,0,0.1,0.1,0.1,0.1c0,0-0.1,0.1-0.2,0.1c0.1,0,0.2,0.1,0.2,0.2c0,0.2-0.1,0.4-0.1,0.5
				c0,0,0.1,0.1,0.1,0.1c-0.1,0.1-0.1,0.2-0.2,0.3c0,0.1,0.1,0.1,0.1,0.2c-0.1,0-0.2,0.1-0.2,0.1c0.2,0.4,0.2,0.9,0.1,1.3
				c-0.2,0.1-0.2,0.2-0.2,0.4c0.1-0.1,0.2-0.2,0.2-0.3c0,0.2,0,0.3,0,0.5c0,0,0.1,0,0.2,0c0,0.2,0,0.3,0,0.5c-0.2,0-0.3,0-0.5,0
				c0.1,0,0.2,0.1,0.3,0.1c0,0.1,0,0.2,0,0.3c0,0,0.2,0,0.2,0c-0.1,0.1-0.2,0.3-0.2,0.4c-0.1,0-0.2-0.1-0.2-0.1
				c0,0.1,0.1,0.3,0.1,0.4c0,0.1-0.1,0.2-0.1,0.2c0.1-0.1,0.3-0.1,0.4-0.2c0-0.1-0.1-0.2-0.2-0.2c0.1,0,0.2,0,0.2,0
				c0.1,0.3-0.1,0.7-0.5,0.6c0.2,0.1,0.4,0.2,0.7,0.3c-0.1,0.1-0.1,0.2-0.2,0.4c0.1,0.4,0.2,0.8,0.1,1.1c-0.1-0.1-0.2-0.1-0.3-0.2
				c0,0.2,0.1,0.3,0.1,0.5c0,0,0.1,0.1,0.2,0.2c0.1,0.5,0,0.9-0.1,1.4c0.1,0.2,0.2,0.5,0.2,0.8c-0.1,0.1-0.1,0.2-0.2,0.4
				c0.3,0.1,0.2,0.4,0.1,0.6c0.1,0.2,0.3,0.4,0.5,0.6c0,0.1-0.1,0.1-0.1,0.2c0.1,0.1,0.1,0.2,0.2,0.3c0.1-0.1,0.2-0.2,0.3-0.3
				c0,0.1,0,0.3,0.1,0.4c0.1,0,0.1-0.1,0.2-0.1c0.2,0.1,0.4,0.3,0.6,0.4c0,0.1-0.1,0.1-0.1,0.2c0.1,0.3,0.4,0.4,0.6,0.6
				c0.2,0.3,0.5,0.5,0.8,0.8c0.1,0.2,0.3,0.3,0.4,0.5c0.1,0,0.3,0,0.4,0c0,0.2,0.2,0.5,0.3,0.7c0,0-0.1,0.1-0.1,0.2
				c0.1,0.1,0.2,0.2,0.4,0.3c-0.1,0.5-0.3,1-0.6,1.5c-0.1,0.2,0,0.3,0,0.5c-0.1,0.1-0.3,0.2-0.4,0.2c0,0,0,0.1,0,0.2
				c-0.2,0.2-0.4,0.4-0.5,0.6c-0.6,0-1.2-0.3-1.8-0.3c0,0-0.1,0.1-0.1,0.1c-0.5-0.4-0.9-0.8-1.3-1.1c0,0-0.1,0-0.2,0
				c-0.2-0.4-0.8-0.6-0.8-1.1c0-0.1,0.1-0.1,0.1-0.2c-0.1-0.1-0.2-0.2-0.3-0.3c0,0,0.1-0.1,0.2-0.2C72,38.1,72,38.1,71.9,38
				c-0.1-0.2-0.1-0.4-0.2-0.6c0,0,0.1-0.1,0.1-0.1c-0.1-0.1-0.2-0.2-0.2-0.2c0-0.1,0.1-0.2,0.2-0.2c-0.1-0.1-0.2-0.2-0.3-0.3
				c0-0.1,0.1-0.3,0.1-0.4c0-0.1-0.1-0.2-0.1-0.2c-0.1,0-0.2-0.1-0.3-0.1c0.1-0.7-0.2-1.3-0.1-2c-0.3-0.2-0.1-0.6-0.2-0.8
				c0,0,0-0.1,0.1-0.1c-0.1-0.2-0.2-0.5,0.1-0.5c-0.2-0.1-0.3-0.4-0.2-0.6c0-0.1-0.1-0.1-0.1-0.2c0.2,0,0.3,0.1,0.5,0.1
				c-0.1-0.2-0.2-0.3-0.3-0.4c-0.1-0.2-0.1-0.4,0-0.6c0-0.1-0.1-0.2-0.1-0.2c0.1-0.2,0.1-0.4,0.1-0.6c-0.1-0.1-0.1-0.2-0.2-0.3
				c0,0,0.1-0.1,0.2-0.2c0-0.1-0.1-0.2-0.2-0.2c0,0,0.1-0.1,0.2-0.1c-0.1-0.1-0.2-0.2-0.3-0.3c0-0.1,0-0.2,0-0.4c-0.2,0-0.3,0-0.5,0
				c0.1,0.2,0.1,0.4,0.1,0.6c-0.1,0.1-0.2,0.1-0.2,0.2c0,0.1,0.1,0.3,0.1,0.4c-0.1,0-0.2,0.1-0.3,0.1c-0.1,0.3-0.2,0.5-0.3,0.8
				c-0.1-0.1-0.1-0.2-0.2-0.2c0,0-0.1,0.1-0.2,0.1c0.1,0.1,0.2,0.2,0.3,0.3c-0.1,0.2-0.2,0.3-0.3,0.5c-0.1,0-0.3,0-0.4,0
				c0.1,0.2,0.1,0.4,0.1,0.6c0.1,0,0.2-0.1,0.2-0.2c-0.1,0.1-0.1,0.2-0.2,0.4c-0.1,0-0.2,0-0.3,0c0,0,0,0.1,0,0.2c0.1,0,0.3,0,0.4,0
				c0,0.1,0,0.2,0,0.2c-0.1-0.1-0.2-0.1-0.3-0.2c0,0.1,0,0.2,0,0.3c-0.1,0.1-0.2,0.2-0.2,0.2c0.1,0.1,0.2,0.2,0.2,0.2
				c-0.1,0.1-0.3,0.3-0.4,0.4c0,0,0.1,0.1,0.1,0.2c-0.1,0.1-0.2,0.3-0.3,0.4c-0.1-0.1-0.2-0.1-0.3-0.2c0,0.1,0.1,0.3,0.2,0.4
				c-0.1,0-0.2,0-0.3,0c0,0.1-0.1,0.2-0.1,0.3c0,0,0.1,0.1,0.2,0.1c-0.2,0.3-0.3,0.5-0.3,0.8c-0.1,0.1-0.2,0.2-0.3,0.3
				c0,0-0.1-0.1-0.1-0.1c-0.1,0.1-0.2,0.3-0.2,0.4c0.1,0.1,0.2,0.1,0.2,0.2c-0.2,0.2-0.4,0.4-0.6,0.6c0,0.1,0,0.2,0,0.2
				c-0.1,0-0.2,0-0.3,0c0,0.1-0.1,0.2-0.1,0.3c0,0,0.1,0.1,0.1,0.1c-0.1,0.1-0.2,0.3-0.3,0.4c-0.1,0-0.2,0-0.3,0
				c-0.1,0.1-0.2,0.2-0.3,0.4c0,0,0,0.1,0,0.2c-0.2,0.1-0.4,0.2-0.6,0.3c0,0.1,0.1,0.3,0.1,0.4c-0.1,0-0.2,0-0.2,0
				c0-0.1,0-0.2,0-0.2c0,0-0.1,0.1-0.2,0.1c0,0.1,0.1,0.2,0.1,0.3c-0.1,0-0.3,0-0.4,0c0,0,0,0.1,0,0.2c0.1,0,0.2,0,0.2,0
				c-0.2,0.2-0.5,0.5-0.7,0.8c0,0-0.1,0-0.2,0c-0.1,0.3-0.4,0.4-0.7,0.4c0,0.1,0,0.2,0,0.2c-0.3,0-0.7,0-0.9,0.2
				c-0.3-0.1-0.6-0.2-1-0.2c-0.1-0.1-0.2-0.3-0.4-0.4c0,0-0.1,0.1-0.1,0.1c-0.2-0.1-0.3-0.1-0.5-0.1c0-0.1,0-0.3,0-0.4
				c-0.2-0.2-0.3-0.3-0.5-0.4c0.2,0.2,0.3,0.4,0.5,0.6c-0.2-0.1-0.3-0.2-0.5-0.3c-0.2-0.3-0.5-0.7-0.8-0.9c0.1-0.2,0.2-0.3,0.3-0.5
				c-0.2,0.1-0.3,0.2-0.5,0.3c0-0.1,0.1-0.2,0.1-0.3c-0.1,0-0.2,0-0.3,0c0,0-0.1-0.1-0.2-0.2c0.1,0,0.2,0,0.3,0
				c-0.1-0.1-0.2-0.2-0.3-0.4c0-0.1,0.1-0.2,0.2-0.3c-0.2,0.1-0.3,0.2-0.5,0.3c0-0.1,0-0.2,0-0.2c0,0,0.2,0,0.2,0
				c-0.3-0.3-0.2-0.7-0.1-1c-0.1-0.1-0.3-0.1-0.4-0.2c0-0.1-0.1-0.2-0.1-0.2c0,0,0.1-0.1,0.1-0.1c-0.1-0.1-0.1-0.2-0.2-0.4
				c0-0.1,0.1-0.1,0.1-0.2c-0.3-0.2-0.2-0.6-0.4-0.9c0,0,0.1-0.1,0.1-0.1c-0.1,0-0.2-0.1-0.2-0.2c0.1-0.1,0.1-0.1,0.2-0.2
				c0-0.1-0.1-0.2-0.1-0.4c0,0-0.1-0.1-0.2-0.2c0-0.1,0-0.2,0-0.3c-0.3-0.2-0.1-0.6-0.1-0.9c-0.1-0.1-0.2-0.2-0.2-0.3
				c0.4,0,0.2-0.4,0.1-0.6c0.2,0.1,0.5,0.2,0.7,0.3c0-0.1,0-0.2,0-0.3c-0.1,0-0.2,0.1-0.3,0.1c-0.1-0.2-0.3-0.4-0.4-0.6
				c0.2-0.1,0.5-0.2,0.7-0.3c-0.1-0.1-0.2-0.2-0.3-0.3c-0.3,0-0.4-0.3-0.4-0.6c0,0-0.1-0.1-0.1-0.2c0.1,0,0.2,0,0.2,0
				c0,0.1,0,0.2,0,0.2c0.2-0.1,0.3-0.2,0.5-0.3c-0.1,0-0.2,0.1-0.4,0.1c0,0-0.1-0.1-0.1-0.2c0.1,0,0.3-0.1,0.4-0.1c0,0,0-0.1,0-0.2
				c-0.1,0-0.2,0-0.3,0c0.1-0.3-0.1-0.6,0.1-0.9c-0.1,0-0.2,0-0.2,0c0.1-0.1,0.1-0.2,0.2-0.2c0.1-0.3,0.2-0.7,0-1
				c0.2,0.1,0.3,0.1,0.5,0.2c-0.1,0-0.2-0.1-0.3-0.2c0,0,0-0.1,0-0.2c0.1,0,0.2-0.1,0.2-0.2c0,0,0.1,0.1,0.2,0.2c0-0.1,0-0.2,0-0.2
				c-0.1,0-0.3-0.1-0.4-0.2c0.1-0.1,0.2-0.1,0.2-0.2c0-0.3,0.1-0.6,0.4-0.9c0-0.1-0.1-0.2-0.2-0.2c0.2-0.1,0.3-0.2,0.5-0.3
				c0-0.1-0.1-0.1-0.1-0.2c0.2,0,0.2-0.2,0.1-0.3c0.1,0,0.2,0,0.2,0c0-0.1,0-0.2-0.1-0.2c0-0.2,0.1-0.4,0.1-0.6
				c0.2-0.1,0.3-0.3,0.5-0.4c-0.1,0-0.3,0.1-0.4,0.1c0.1-0.1,0.2-0.2,0.3-0.3c0,0-0.1-0.1-0.1-0.1c0.1-0.1,0.1-0.1,0.2-0.2
				c0.1-0.2,0.2-0.4,0.2-0.6c0.1,0.1,0.2,0.2,0.3,0.3c0-0.1,0-0.2,0.1-0.3c-0.1-0.1-0.3-0.1-0.4-0.2c-0.1-0.5,0.2-0.9,0.5-1.2
				c-0.1-0.2-0.1-0.4-0.1-0.6c0.2,0.1,0.4,0.3,0.5,0.5c0.1-0.1,0.3-0.2,0.4-0.2c-0.1,0-0.3,0.1-0.4,0.1c0-0.1,0-0.2,0-0.3
				c0.2,0.1,0.4,0.1,0.6,0.1c-0.1-0.1-0.1-0.2-0.1-0.4c0,0-0.1,0.1-0.2,0.1c-0.1-0.1-0.2-0.1-0.3-0.2c0.1-0.1,0.2-0.2,0.2-0.4
				c0,0-0.1-0.1-0.1-0.1c0.1-0.1,0.1-0.2,0.2-0.4c0.1,0.1,0.2,0.2,0.3,0.3c0-0.1-0.1-0.2-0.1-0.3c0.1-0.2,0.1-0.4,0.1-0.6
				c0.1,0,0.2-0.1,0.2-0.2c0,0-0.1-0.1-0.1-0.1c0.1-0.1,0.3-0.2,0.4-0.3c0,0.1,0,0.2,0.1,0.3c0.1-0.1,0.1-0.2,0.2-0.2
				c-0.1-0.1-0.2-0.2-0.3-0.3c0.2,0,0.3,0,0.5,0c0-0.1-0.1-0.2-0.2-0.2c0.1-0.1,0.3-0.2,0.4-0.3c0-0.1,0.1-0.2,0.2-0.3
				c0.1,0.2,0.2,0.2,0.4,0.3c-0.1-0.2-0.1-0.5,0-0.7c0.1,0.1,0.3,0.3,0.4,0.4c-0.1-0.2-0.2-0.4-0.3-0.5c0.4-0.3,0.8-0.5,1.2-0.6
				c0,0,0.1,0.1,0.2,0.1c0.1-0.2,0.2-0.3,0.3-0.5c0.3,0.1,0.6,0.1,0.9,0.2c-0.1-0.1-0.1-0.2-0.2-0.3c-0.1,0-0.3,0-0.4,0
				c0,0-0.1-0.1-0.2-0.1c0.1-0.1,0.3-0.2,0.4-0.3c0,0.1,0,0.2,0,0.2c0.1,0,0.3,0,0.3,0c0-0.1-0.1-0.2-0.1-0.3c0.1,0,0.2,0,0.4,0
				c0.1,0.1,0.1,0.2,0.2,0.4c0-0.1,0-0.2,0-0.3c0.1-0.1,0.2-0.2,0.3-0.3c0,0.1,0,0.2,0,0.2c0,0,0.1,0,0.2,0
				C65.9,14.4,66.8,14.6,67.2,14.8z M66.8,15c0.1,0,0.2,0,0.2-0.2C66.8,14.8,66.7,14.8,66.8,15z M66,15.2c0.1,0,0.2-0.2,0.1-0.3
				C65.9,14.8,65.9,15.1,66,15.2z M68,15c-0.1,0.1-0.1,0.3,0,0.4C68.1,15.3,68.1,15.1,68,15z M65.5,15.5 M71.1,16.6 M71.6,16.8
				 M62.7,16.7 M61.8,17.4c0.1,0.1,0.1,0.3,0.2,0.4c0.1-0.1,0.2-0.1,0.3-0.2C62.1,17.5,61.9,17.4,61.8,17.4z M61.5,17.6 M60.7,19.2
				c0.1,0.1,0.2,0.2,0.2,0.2c0.1-0.1,0.3-0.2,0.4-0.4C61.2,19.1,60.9,19.1,60.7,19.2z M67.6,20.1 M67,20.5c0.1,0.1,0.2,0.3,0.3,0.4
				c0.2-0.2,0.4-0.4,0.6-0.6c-0.1,0-0.3,0.1-0.4,0.1c0,0-0.1-0.1-0.1-0.1C67.2,20.4,67.1,20.4,67,20.5z M68.1,20.6
				c0,0.1,0,0.2,0,0.2c-0.1,0-0.2,0-0.3,0c-0.2,0.1-0.4,0.2-0.5,0.3c0,0-0.1-0.1-0.1-0.1c-0.1,0.1-0.2,0.2-0.2,0.3
				c-0.1-0.1-0.2-0.1-0.3-0.3c-0.1,0.3-0.5,0.2-0.7,0.3c0.1,0.1,0.2,0.1,0.3,0.2c-0.1,0.1-0.2,0.2-0.3,0.3c0,0-0.1,0-0.2,0
				c-0.1,0.3-0.5,0.2-0.8,0.3c0,0.2-0.1,0.4-0.1,0.6c-0.1,0-0.2,0-0.2,0c-0.1,0.1-0.2,0.2-0.3,0.2c0-0.1-0.1-0.2-0.2-0.3
				c0,0.2,0,0.3,0,0.5c-0.1,0-0.2,0-0.3,0c-0.1,0.1-0.2,0.2-0.2,0.2c0,0.1,0,0.2,0,0.3c-0.1-0.1-0.2-0.1-0.3-0.2
				c0.1,0.3,0.1,0.6,0.1,0.9c-0.1-0.1-0.2-0.1-0.2-0.2c-0.1,0.2-0.2,0.4-0.3,0.6c0.1,0,0.2,0.1,0.2,0.2c-0.1,0.2-0.3,0.4-0.5,0.5
				c-0.2,0-0.3,0-0.5,0c0.1-0.1,0.2-0.2,0.3-0.3c0-0.1,0-0.2,0-0.3c-0.1,0-0.2,0.1-0.2,0.1c0-0.1,0-0.3,0-0.4
				c-0.1,0.2-0.2,0.5-0.3,0.7c0.1-0.1,0.3-0.2,0.4-0.2c-0.1,0.1-0.2,0.3-0.3,0.4c0.1,0.1,0.2,0.2,0.3,0.2c0,0.1,0.1,0.3,0.1,0.4
				c-0.1-0.1-0.3-0.1-0.4-0.2c0,0.1,0.1,0.2,0.2,0.3c-0.2,0.1-0.3,0.3-0.5,0.4c-0.1,0.3-0.3,0.5-0.5,0.7c0.1,0,0.2-0.1,0.3-0.1
				c0.1,0,0.2,0.1,0.3,0.1c-0.1,0.1-0.2,0.1-0.2,0.2c0,0.1,0,0.2,0,0.4c-0.1,0-0.2-0.1-0.3-0.2c0.1,0.1,0.2,0.2,0.3,0.3
				c-0.1,0.2-0.2,0.3-0.4,0.5c0.1,0,0.2,0,0.2,0c-0.1,0.1-0.1,0.3-0.2,0.4c-0.2,0.1-0.2,0.3-0.1,0.5c-0.1,0.1-0.2,0.2-0.3,0.2
				c0.1,0.1,0.2,0.2,0.2,0.3c-0.1,0-0.3,0-0.4,0c0,0.1,0.1,0.2,0.1,0.2c0,0-0.1,0-0.2,0c0.1,0.2-0.1,0.4-0.2,0.5
				c0.1,0,0.2-0.1,0.3-0.2c-0.1,0.1-0.1,0.3-0.2,0.5c-0.1-0.1-0.2-0.1-0.2-0.2c0,0.1,0,0.2,0,0.4c0.1,0.1,0.2,0.2,0.2,0.2
				c-0.1,0.2-0.2,0.5-0.3,0.7c0.1,0.1,0.2,0.1,0.3,0.2c-0.4,0.1,0,0.6-0.3,0.9c-0.1,0.1-0.1,0.1-0.2,0.2c0.1,0.1,0.3,0.1,0.4,0.2
				c0,0.1,0,0.2,0,0.3c0.1,0.1,0.2,0.1,0.3,0.2c0,0,0,0.1,0,0.2c0.1,0.1,0.2,0.2,0.3,0.2c0.1,0,0.2,0.1,0.4,0.1c0,0,0.1-0.1,0.1-0.1
				c0.2,0,0.3,0.1,0.5,0.1c0,0.1,0,0.2,0,0.3c0.2-0.1,0.5-0.1,0.7-0.2c0.2,0,0.5,0,0.7,0c-0.1,0.1-0.1,0.2-0.2,0.3
				c0.1-0.1,0.3-0.2,0.4-0.3c-0.1-0.1-0.2-0.2-0.3-0.3c0.2-0.1,0.2-0.2,0.3-0.4c0.1,0,0.2,0,0.2,0c0.1-0.1,0.1-0.2,0.2-0.3
				c0.1,0,0.2,0,0.2,0c0.3-0.4,0.8-0.6,1.1-1.1c0.1,0,0.2,0,0.2,0c0.1-0.2,0.1-0.4,0.2-0.5c0.3-0.3,0.3-0.9,0.7-1.1
				c0-0.1,0-0.2,0-0.2c0.1-0.1,0.2-0.1,0.3-0.2c0-0.1-0.1-0.1-0.1-0.2c0.3-0.1,0.5-0.3,0.3-0.7c0.1-0.1,0.3-0.2,0.4-0.4
				c-0.1,0-0.2,0.1-0.3,0.1c0.1-0.1,0.3-0.2,0.4-0.4c0-0.1-0.1-0.2-0.2-0.2c0.1-0.1,0.2-0.2,0.4-0.3c0,0-0.1-0.1-0.1-0.1
				c0.1-0.1,0.2-0.2,0.3-0.3c0.1,0,0.2,0.1,0.2,0.2c0-0.1-0.1-0.2-0.1-0.3c0.1-0.2,0.2-0.4,0.2-0.6c0.2-0.1,0.2-0.3,0.2-0.4
				c0,0,0.2-0.1,0.2-0.2c-0.2-0.5,0-1,0.2-1.4c-0.1-0.3-0.1-0.6,0-0.9c0,0-0.1-0.1-0.1-0.1c0,0,0.1-0.1,0.1-0.1
				c-0.1-0.4-0.1-0.9,0.3-1.1c-0.1-0.1-0.1-0.1-0.2-0.2c0-0.2,0-0.5-0.1-0.7c0,0,0.1-0.1,0.1-0.1c-0.1-0.4-0.2-0.8-0.3-1.2
				c0,0-0.1,0.1-0.1,0.1C68.4,20.8,68.2,20.7,68.1,20.6z M66.9,20.8 M59.3,21.5c-0.1,0.2,0.3,0.2,0.2,0
				C59.4,21.5,59.3,21.5,59.3,21.5z M69.4,22.9c0.1,0,0.2-0.3,0.1-0.4C69.3,22.4,69.2,22.9,69.4,22.9z M63.1,23.8 M58.3,25.1
				 M61.7,25.7 M61.8,26c-0.1,0-0.2,0.2-0.1,0.3C61.9,26.2,62,26,61.8,26z M70.9,26.4 M70.7,26.5c0.1,0.2,0.2,0.4,0.2,0.5
				c-0.1,0-0.2-0.1-0.2-0.2c-0.1,0.1-0.1,0.3-0.1,0.4c0.1,0.1,0.2,0.2,0.3,0.3c0,0,0.1-0.1,0.2-0.1c0,0-0.1-0.1-0.1-0.2
				c0.1,0,0.2-0.1,0.2-0.1C71,26.9,70.8,26.7,70.7,26.5z M57.8,26.4 M61.2,26.6 M70.3,27.9c0.1,0,0.2,0.1,0.3,0.1
				c0,0,0.1-0.1,0.2-0.2c0-0.1-0.1-0.2-0.2-0.2C70.5,27.7,70.4,27.8,70.3,27.9z M70.7,28.2 M60.5,28 M57.2,28.2 M57.4,28.4
				 M60.9,28.8 M57.1,28.9 M57.1,29.1 M57.4,31.3 M65.1,32.9 M67.6,33.8 M64.8,33.9 M75.6,36.1 M57.4,35.8 M57.5,35.9
				c-0.1,0.1,0.1,0.4,0.3,0.4C57.8,36.2,57.6,35.9,57.5,35.9z M76.2,36.6 M57.8,37 M58.2,37.9 M58.9,39 M63.7,39.2 M75.1,40.7"/>
		</g>
		<g>
			<path fill="#FFFFFF" d="M7.7,13.3c0.1,0,0.2,0,0.3,0c0.5,0,1,0,1.6,0c0.2,0.3,0.6,0.5,0.9,0.6c0,0.1,0,0.2,0,0.2
				c0.2,0.3,0.5,0.5,0.5,0.9c0.1,0,0.2,0,0.2,0c0,0,0.1,0.1,0.1,0.2c-0.1,0.1-0.1,0.3-0.2,0.5c0.1,0.4,0,0.7,0,1.1
				c0,0.2,0,0.4,0,0.6c0.1,0.1,0.2,0.1,0.2,0.2c-0.1,0-0.2,0-0.2,0c0,0.2,0.1,0.4,0.1,0.6c0.2,0.2,0.3,0.6,0.4,0.8
				c0,0-0.1,0.1-0.1,0.1c0.2,0.4-0.1,0.9-0.2,1.2c0,0,0.1,0.1,0.1,0.1c-0.3,0.3-0.6,0.7-1,0.6c-0.1-0.1-0.2-0.2-0.4-0.3
				c-0.1,0-0.3,0.1-0.4,0.1c-0.1-0.1-0.2-0.2-0.2-0.3c-0.1,0-0.2,0.1-0.3,0.1c-0.3-0.2-0.6-0.4-0.9-0.5c-0.4,0-0.9,0.1-1.2,0.5
				c0,0.1,0,0.2,0,0.3c-0.1,0-0.2,0.1-0.2,0.2c0.1,0.4,0.2,0.9,0.5,1.2c0,0,0,0.1,0,0.2c0.1,0.1,0.2,0.1,0.3,0.2c0,0.1,0,0.2,0,0.2
				c0.1,0.1,0.3,0.2,0.4,0.3c0,0.1,0,0.2,0,0.2c0.1,0.1,0.2,0.1,0.3,0.2c0,0.1,0,0.2,0,0.2c0.6,0.3,0.8,1,1.4,1.3
				c0,0-0.1,0.1-0.1,0.1c0.1,0.1,0.2,0.1,0.3,0.2c0.1,0.2,0.2,0.3,0.3,0.4c0,0,0,0.1,0,0.2c0.3,0.3,0.5,0.8,0.9,1
				c0.3,0.2,0.3,0.6,0.6,0.7c0,0,0,0.1,0,0.2c0.4,0.1,0.6,0.4,0.6,0.8c0,0,0.1-0.1,0.1-0.1c0.1,0.1,0.2,0.2,0.2,0.3
				c0,0.1,0,0.3,0,0.4c0,0,0.1,0.1,0.2,0.2c0,0.2,0.1,0.3,0.1,0.5c0,0-0.1,0.1-0.1,0.2c0.1,0,0.2,0,0.2,0c0.1,0.4,0.1,0.8,0.2,1.1
				c0,0.1,0,0.3,0,0.4c0,0.3-0.1,0.5-0.2,0.8c0.1,0.1,0.2,0.3,0.3,0.5c-0.1,0.3-0.4,0.7,0,1c-0.1,0.1-0.2,0.2-0.3,0.3
				c0.1,0.1,0.1,0.2,0.2,0.3c-0.1,0.2-0.2,0.5-0.1,0.7c-0.1,0.2-0.2,0.5-0.1,0.8c-0.1,0.1-0.2,0.1-0.2,0.2c0,0.5-0.4,0.8-0.7,1.1
				c-0.1,0.2-0.2,0.5-0.3,0.7c-0.1,0.1-0.2,0.2-0.4,0.2c0,0.2-0.1,0.3-0.1,0.5c0,0,0,0.1,0.1,0.1c-0.2,0.2-0.4,0.4-0.7,0.6
				c-0.4,0.3-0.5,0.7-0.8,1c-0.1-0.1-0.2-0.1-0.3-0.2c0,0.1,0,0.2,0,0.3c-0.2,0.1-0.3,0.3-0.4,0.4c-0.2,0.2-0.6,0.1-0.8,0.2
				c-0.1,0-0.2-0.1-0.4-0.1c-0.2,0.5-0.8,0.5-1.2,0.4c0,0,0-0.1,0-0.2c-0.2,0.1-0.5,0.2-0.7,0.2c0-0.1-0.1-0.2-0.2-0.2
				c-0.1,0-0.2,0-0.2,0c0-0.1-0.1-0.2-0.1-0.3c-0.1,0-0.2,0-0.2,0c-0.2-0.2-0.5-0.4-0.7-0.6c-0.1,0-0.2,0-0.2,0
				c-0.2-0.3-0.3-0.6-0.6-0.8c0,0,0.1,0,0.1-0.1c-0.1-0.1-0.3-0.3-0.4-0.4c0.1-0.1,0.2-0.3,0.2-0.4c-0.1,0-0.2,0.1-0.2,0.1
				c-0.1-0.1-0.2-0.2-0.2-0.2c0-0.1,0-0.2,0-0.3c-0.1,0-0.2,0-0.3,0c-0.1-0.2-0.2-0.4-0.4-0.6c-0.1-0.2-0.3-0.3-0.4-0.4
				C1.8,37.1,1.9,37,2,36.9c-0.1-0.2-0.3-0.4-0.5-0.6c0-0.2-0.1-0.3-0.1-0.5c0.1,0,0.2,0.1,0.2,0.2c0.1-0.1,0.2-0.1,0.2-0.2
				c-0.1,0-0.3,0-0.4,0c0-0.1,0.1-0.2,0.1-0.3c-0.1-0.2-0.3-0.3-0.4-0.5c0.1,0,0.2,0.1,0.2,0.1c0,0,0.1-0.1,0.1-0.1
				c-0.1-0.1-0.1-0.1-0.2-0.2c0.1-0.5,0.2-1,0.1-1.5c0.1-0.1,0.1-0.2,0.2-0.3c0,0-0.1-0.1-0.1-0.1c0.1-0.1,0.2-0.2,0.3-0.2
				c-0.1-0.1-0.2-0.2-0.2-0.2c0.1-0.1,0.3-0.3,0.4-0.4c0.1,0,0.2-0.1,0.4-0.1c0.1,0,0.2,0.1,0.3,0.1c0,0.1,0,0.2,0,0.2
				c0.2,0,0.4,0,0.6,0.1c0,0,0-0.2,0-0.2c0.1,0,0.2,0.1,0.3,0.1c0.1,0.2,0.3,0.4,0.5,0.6c0.1,0,0.2,0,0.3,0C4.2,32.9,4.1,33,4,33.1
				c0.1,0.1,0.3,0.2,0.4,0.3c0,0.1,0,0.3,0,0.4c0.1,0,0.3,0.1,0.4,0.2c0,0.1-0.1,0.2-0.1,0.3c0.3,0.2,0.6,0.4,0.7,0.8
				c0.7-0.2,1.4-0.3,2-0.3c0.4-0.1,0.7-0.2,1-0.4c0,0.1,0.1,0.1,0.1,0.2c0.2-0.2,0.4-0.3,0.7-0.5c0.1,0,0.2,0,0.3,0
				c0.2-0.2,0.3-0.6,0.4-0.9c-0.1-0.3-0.1-0.7,0.1-1.1c-0.1-0.1-0.1-0.1-0.2-0.2c0.1-0.1,0.2-0.2,0.3-0.3c-0.1-0.1-0.2-0.2-0.3-0.3
				c0-0.1,0.1-0.2,0.1-0.3c0,0-0.1-0.1-0.1-0.1c0.1-0.2,0-0.5,0-0.7c-0.1-0.1-0.2-0.1-0.3-0.2c0-0.1-0.1-0.2-0.1-0.2
				c-0.1-0.1-0.3-0.1-0.4-0.2c-0.2,0-0.3,0-0.5,0c-0.1-0.1-0.2-0.3-0.3-0.4c-0.1,0-0.2,0-0.3,0C8,29.1,8.1,29,8.2,29
				c-0.4-0.1-0.7-0.3-0.9-0.6c0-0.1,0.1-0.2,0.2-0.3c-0.1,0-0.2,0.1-0.3,0.1C7.1,28.1,7,28,7,27.9c-0.1-0.1-0.3-0.2-0.4-0.3
				c0,0,0.1-0.1,0.1-0.1c-0.1-0.1-0.2-0.2-0.2-0.4C6.2,27.1,6,26.9,5.7,27c0,0-0.1-0.1-0.1-0.2c-0.1,0-0.2,0-0.2,0
				c-0.2-0.2-0.3-0.4-0.5-0.6c-0.1,0-0.1,0.1-0.2,0.1c-0.3-0.6-1.1-0.4-1.4-1c-0.1,0-0.1,0.1-0.2,0.1C2.7,25,2.4,24.5,2,24.2
				c0,0,0.1-0.1,0.1-0.1C2,24.1,2,24,1.9,23.9c-0.1,0-0.2,0-0.3,0c0-0.1,0.1-0.2,0.1-0.3c-0.1-0.1-0.2-0.1-0.3-0.2
				c0-0.1,0.1-0.2,0.2-0.2c-0.3-0.3-0.4-0.6-0.7-0.9c0,0,0-0.1,0-0.2C0.9,22,0.8,22,0.7,21.9c0.1-0.1,0.1-0.3,0.1-0.4
				c-0.1,0.1-0.2,0.2-0.3,0.3c0-0.1,0-0.3,0-0.4c0,0-0.1-0.1-0.2-0.1c0.1-0.3-0.1-0.6,0.1-0.9c0,0-0.1-0.1-0.2-0.2
				c0-0.4,0-0.8,0.2-1.1c0,0-0.1-0.1-0.1-0.1c0.1-0.1,0.1-0.2,0.2-0.3c-0.1,0-0.2-0.1-0.3-0.1c0.2-0.1,0.5-0.1,0.7-0.2
				c-0.1-0.3-0.2-0.5-0.2-0.8c0.1,0,0.2,0.1,0.2,0.2c0.1-0.1,0.2-0.2,0.3-0.2c0-0.2-0.1-0.3-0.1-0.5c0,0.1,0.1,0.2,0.1,0.3
				c0.1-0.1,0.2-0.2,0.3-0.3c-0.1-0.1-0.1-0.2-0.1-0.3c0.1,0,0.2,0.1,0.2,0.2c0-0.1,0-0.2,0-0.2c0.1,0,0.2,0,0.2,0
				c0.1-0.2,0.3-0.4,0.4-0.6c0-0.3,0.2-0.5,0.4-0.8c0.1,0.1,0.1,0.1,0.2,0.2c-0.1-0.6,0.6-0.9,1.1-0.9c0.1,0,0.3,0.1,0.4,0.1
				c0-0.2,0.1-0.3,0.3-0.4c0-0.1-0.1-0.1-0.1-0.2c0.2-0.1,0.3-0.2,0.5-0.2c0,0,0.1-0.1,0.2-0.2c0,0,0.1,0.1,0.2,0.2
				c0.1-0.1,0.2-0.3,0.3-0.4c0.1,0.1,0.2,0.1,0.3,0.2c0.4-0.2,0.7-0.2,1.1,0c0-0.1,0-0.2,0-0.3c0.1,0,0.2,0,0.3,0
				C7.5,13.4,7.6,13.3,7.7,13.3z M3.2,15.4 M10,17.2 M10.9,17.9 M11.2,18.5 M11.1,19c0,0.1,0.2,0.2,0.3,0.2
				C11.4,19,11.2,18.9,11.1,19z M11.2,19.9 M4.9,25.9 M7.3,26.6 M7.4,26.8 M8.5,29.2 M2.4,34.8 M3.5,38.3c-0.1,0.1,0,0.3,0.1,0.4
				C3.8,38.6,3.7,38.2,3.5,38.3z M10.5,39.3c0.1,0,0.2-0.2,0.2-0.3C10.5,39,10.4,39.2,10.5,39.3z M6.5,40.7 M6.5,41"/>
		</g>
		<g>
			<path fill="#FFFFFF" d="M37.8,21.1c0.1-0.2,0.2-0.4,0.5-0.2c0,0,0.1-0.1,0.1-0.1c0.1,0.1,0.2,0.2,0.3,0.3
				c0.1-0.1,0.1-0.1,0.2-0.2c0.1,0,0.2,0,0.2,0c0,0.1,0.1,0.2,0.1,0.3c0.4,0.1,0.7,0.2,1,0.4c0,0,0.1,0,0.2,0
				c0.1,0.2,0.3,0.4,0.4,0.7c0,0.1,0,0.2,0,0.3c0,0,0.1,0.1,0.2,0.2c0,0.1,0,0.2,0,0.2c0,0,0.1,0.1,0.2,0.2c0,0.1,0,0.3,0,0.4
				c0,0,0.1,0.1,0.2,0.2c0,0.1-0.1,0.1-0.1,0.2c-0.1,0.1-0.2,0.2-0.3,0.3c0.1,0,0.2,0,0.3,0c0,0.4,0.2,0.8,0.3,1.2
				c-0.1,0-0.2,0-0.3,0c0,0.1,0.1,0.3,0.1,0.4c-0.1,0.1-0.2,0.1-0.4,0.2c0.1,0,0.2,0,0.2,0.1c0,0.2,0,0.3,0.1,0.5c0,0-0.1,0-0.1,0
				c0,0.2-0.1,0.3-0.1,0.5c0,0.1,0.1,0.1,0.1,0.2c-0.1,0.1-0.2,0.2-0.3,0.2c0.1,0,0.3-0.1,0.4-0.1c-0.1,0.2-0.1,0.4-0.2,0.6
				c-0.1,0-0.2,0-0.2,0c0,0-0.1,0.1-0.2,0.1c0.5,0.2,0,0.7-0.4,0.6c0.1,0.1,0.3,0.2,0.4,0.2c-0.1,0.3-0.2,0.6-0.4,0.9
				c0,0,0.1,0,0.2,0c-0.1,0.2-0.1,0.4-0.1,0.6c-0.1,0-0.2,0.1-0.2,0.2c0.1,0.3,0.1,0.6-0.1,0.9c0,0,0.1,0.1,0.1,0.1
				c-0.1,0.2-0.1,0.4,0,0.6c-0.1,0.1-0.1,0.1-0.2,0.2c0,0.3,0,0.6,0,0.8c0,0-0.1-0.1-0.2-0.1c0-0.1,0.1-0.2,0.1-0.3
				c-0.2,0.2-0.4,0.4-0.5,0.7c0.1,0,0.2-0.1,0.3-0.1c0.1,0.2,0.1,0.3,0.2,0.5c-0.1-0.1-0.2-0.1-0.3-0.2c-0.1,0-0.2,0-0.3,0
				c0,0-0.1,0.1-0.1,0.1c0.2,0.2,0.5,0.3,0.7,0.5c-0.1,0-0.3-0.1-0.4-0.1c0.1,0.2,0.3,0.3,0.2,0.5c0.2-0.1,0.4-0.1,0.6,0
				c-0.2,0.1-0.4,0.3-0.6,0.5c0,0.1,0,0.2,0,0.3c0.1,0,0.2-0.1,0.2-0.1c0.1,0.1,0.2,0.2,0.3,0.3c-0.1,0-0.3,0-0.3,0
				c0,0-0.1,0.1-0.1,0.2c0.1,0.2,0.1,0.3,0.2,0.5c0,0-0.1,0.1-0.1,0.1c0,0-0.1-0.1-0.1-0.2c0,0.1,0,0.3,0,0.4c0,0,0.1,0,0.2,0
				c-0.1,0.2-0.1,0.4-0.1,0.5c-0.1,0.1-0.2,0.1-0.2,0.2c-0.1,0-0.2,0-0.3,0c0,0.1,0.1,0.2,0.2,0.2c-0.1,0.1-0.2,0.2-0.3,0.3
				c0,0.1,0.1,0.2,0.2,0.2c0.1-0.1,0.2-0.2,0.3-0.2c0,0.1-0.1,0.2-0.1,0.3c0,0.1,0,0.2,0.1,0.3c-0.1,0-0.2,0-0.3,0
				c0,0,0.1-0.1,0.2-0.2c-0.1,0-0.2,0-0.2,0c0,0.1-0.1,0.3-0.1,0.4c0.2,0,0.4,0,0.5,0c-0.1,0.2-0.3,0.3-0.4,0.5
				c0.1,0,0.2-0.1,0.3-0.1c0.1,0.3,0.2,0.6,0.4,0.8c-0.1,0-0.2,0.1-0.2,0.1c0,0,0.1,0.1,0.1,0.1c-0.1,0-0.2,0.1-0.2,0.2
				c0,0,0.1,0.1,0.1,0.1c0,0.1-0.1,0.2-0.1,0.3c-0.1,0-0.2,0-0.4,0c0,0.1,0.1,0.2,0.1,0.3c-0.2-0.1-0.4-0.3-0.6-0.4
				c0.1,0.1,0.2,0.3,0.3,0.4c-0.1-0.1-0.2-0.1-0.4-0.2c-0.1,0.1-0.2,0.2-0.3,0.2c0,0.1,0.1,0.2,0.1,0.2c-0.1,0-0.2-0.1-0.3-0.2
				c-0.2,0.1-0.5,0.3-0.7,0.5c-0.6-0.2-1.3-0.6-1.4-1.3c-0.1,0-0.2-0.1-0.3-0.1c0-0.2,0-0.4,0-0.6c0.1,0,0.2,0.1,0.2,0.2
				c0.1-0.1,0.2-0.1,0.2-0.2c-0.1,0-0.2,0-0.3,0c0,0,0.1-0.1,0.2-0.1c-0.3-0.1-0.3-0.3-0.4-0.6c0.1,0,0.2,0,0.2,0
				c0.1,0.1,0.3,0.2,0.4,0.3c-0.1-0.1-0.2-0.2-0.2-0.4c0.2,0,0.4,0.2,0.5,0.3c-0.1-0.1-0.2-0.2-0.3-0.3c0,0,0.1-0.1,0.2-0.2
				c-0.2-0.2-0.5-0.3-0.7-0.6c0.1,0,0.2,0.1,0.3,0.1c0-0.1-0.1-0.3-0.1-0.4c0.1,0,0.2,0,0.3,0c0-0.1,0.1-0.2,0.2-0.2
				C36.3,37.1,36.2,37,36,37c0.1,0.1,0.2,0.2,0.3,0.3c-0.2,0-0.4-0.1-0.5-0.3c0.1-0.1,0.2-0.2,0.4-0.3c-0.1-0.2-0.1-0.3-0.1-0.5
				C36,36,36,35.9,35.9,35.8c0.2,0,0.3,0,0.5,0c0-0.1,0.1-0.2,0.1-0.3c-0.1-0.1-0.1-0.1-0.2-0.2c0.2-0.2,0.1-0.4-0.1-0.6
				c0.1,0,0.3,0,0.4,0c-0.1-0.1-0.3-0.1-0.4-0.2c0.1-0.1,0.3-0.2,0.4-0.4c-0.2,0-0.4,0.1-0.6,0.1c0,0,0-0.1,0-0.2
				c0.3-0.1,0.7-0.2,0.9-0.4c-0.2,0-0.3,0.1-0.4,0.2c-0.1,0-0.2-0.1-0.2-0.1c0-0.1-0.1-0.2-0.1-0.3c0.1,0,0.2-0.1,0.3-0.1
				c0.1,0,0.2,0.1,0.2,0.1c-0.1-0.2-0.2-0.3-0.3-0.4c-0.1-0.2-0.1-0.4,0-0.5c-0.1-0.2-0.1-0.4-0.2-0.6c0,0,0.1-0.1,0.1-0.2
				c0-0.1-0.1-0.2-0.2-0.2c0.1-0.1,0.2-0.1,0.4-0.2c0-0.2,0-0.4,0-0.6c0,0-0.1,0.1-0.2,0.1c0,0-0.1-0.1-0.1-0.2
				c0.1,0,0.2-0.1,0.2-0.2c0,0-0.1-0.1-0.1-0.1c0.1,0,0.2-0.1,0.2-0.2c0-0.1,0-0.2,0.1-0.3c-0.2-0.1-0.4-0.2-0.5-0.4
				c0.1,0,0.3,0.1,0.3,0.1c0.1-0.1,0.1-0.2,0.2-0.3c-0.1,0-0.3,0-0.4,0c0-0.1,0.1-0.2,0.1-0.3c0.1,0,0.2-0.1,0.3-0.1
				c0-0.1,0-0.2,0-0.3c-0.2,0-0.3,0-0.4,0c0.1-0.1,0.1-0.4,0.3-0.2c0,0,0.1-0.1,0.1-0.1c-0.1-0.2-0.3-0.3-0.4-0.4
				c0.1-0.3,0.3-0.5,0.5-0.7c-0.1,0-0.2,0-0.2,0v-0.1c0.1,0,0.3-0.1,0.4-0.1c-0.1-0.1-0.3-0.2-0.5-0.3c0,0-0.1-0.1-0.1-0.2
				c0.1-0.3,0.1-0.5,0.2-0.8c-0.1-0.1-0.2-0.2-0.2-0.2c0.1-0.1,0.1-0.1,0.2-0.2c0-0.1,0-0.3,0-0.4c0.3-0.1,0.1-0.4,0.1-0.6
				c0-0.4,0.2-0.8,0.3-1.2c0.1,0.1,0.2,0.2,0.2,0.2c0-0.1,0-0.3,0-0.4c-0.1,0-0.2,0-0.3,0c0-0.1,0-0.2,0-0.3
				c0.1,0.1,0.2,0.2,0.4,0.3c0.1-0.2,0.2-0.3,0.3-0.5c-0.1-0.1-0.2-0.2-0.4-0.3c0-0.1-0.1-0.2-0.1-0.3c0.1-0.1,0.2-0.1,0.2-0.2
				c0.1,0,0.2,0,0.3,0c-0.1-0.1-0.1-0.2-0.2-0.3c0.1-0.1,0.2-0.3,0.3-0.4c0.1,0.1,0.3,0.2,0.4,0.3c0-0.1-0.1-0.2-0.1-0.3
				c0.1-0.1,0.1-0.2,0.2-0.3C38,21,37.8,21.1,37.8,21.1z M38.7,21.1 M40,21.9c-0.1,0.1,0,0.3,0.1,0.2C40.3,22.1,40.2,21.8,40,21.9z
				 M37.2,22.4 M40.8,23 M41.1,23.6 M40.5,24.5c0,0.1,0.1,0.2,0.1,0.3c0.2,0,0.3-0.1,0.5-0.1c0,0-0.1-0.1-0.2-0.2
				C40.8,24.5,40.7,24.5,40.5,24.5z M40.9,24.8 M41.1,25 M36.6,25.8 M40.9,26.2 M36.5,26.9c0.1,0.1,0.3-0.1,0.3-0.2
				C36.6,26.6,36.4,26.7,36.5,26.9z M40.4,27.3 M40.7,27.4 M36.6,27.8 M36.7,28.1 M39.5,28.9 M40.2,30 M39.4,32.7 M36.6,32.7
				 M37.1,32.8 M36.4,33.5 M39.1,34.5c0.1,0.1,0.2,0.3,0.3,0.4c0.1-0.1,0.2-0.2,0.3-0.3C39.5,34.6,39.3,34.5,39.1,34.5z M36.7,35.2
				 M36.7,35.8 M39.2,35.9C39.1,36,39,36.1,39,36.2C39.2,36.3,39.4,35.8,39.2,35.9z M36.3,36 M36.2,36.3c-0.1,0.2,0.3,0.3,0.4,0.1
				C36.6,36.3,36.3,36.3,36.2,36.3z M39,36.5 M39.1,36.6c0,0.1,0.1,0.3,0.2,0.4c0.1-0.1,0.1-0.3,0.2-0.4
				C39.4,36.6,39.2,36.6,39.1,36.6z M38.8,38.8 M35.9,38.9 M36.2,40.3 M36.5,40.3"/>
		</g>
		<g>
			<path fill="#FFFFFF" d="M37.7,4.9c0.2-0.2,0.4-0.4,0.6-0.6c0.2,0.1,0.5,0.1,0.6,0.3c0,0,0.1,0,0.1,0c0.1-0.1,0.1-0.1,0.2-0.2
				c0,0,0.1,0.1,0.2,0.1c0,0,0.1-0.1,0.1-0.1C39.6,4.9,40,5,40.3,5.3c0,0-0.1,0.1-0.1,0.1c0.1,0.1,0.1,0.2,0.2,0.3
				c0,0.1-0.1,0.1-0.1,0.2c0.2,0.1,0.3,0.2,0.4,0.4c-0.2,0.1-0.2,0.3-0.3,0.5c0,0,0.1-0.1,0.2-0.1c0-0.1,0-0.2,0-0.3
				c0.1,0.2,0.2,0.3,0.3,0.4c0,0.1,0,0.2,0,0.3c-0.1,0-0.2,0-0.3,0c0,0.1,0.1,0.2,0.1,0.3c0,0,0.1,0,0.1,0c0.1,0.1,0.3,0.2,0.4,0.4
				c-0.1,0-0.2,0.1-0.3,0.1c0.1,0.1,0.2,0.2,0.3,0.3c0,0,0,0.1,0,0.2c0,0,0.1,0.1,0.2,0.1c0,0-0.1,0.1-0.1,0.1
				c0,0.1,0.1,0.1,0.1,0.2c0,0-0.1,0.1-0.1,0.2c0.1,0,0.2,0,0.2,0c0,0-0.1,0.1-0.1,0.1c0,0,0.1,0,0.2,0c0,0,0,0.1,0,0.2
				c0,0-0.2-0.1-0.2-0.1c0,0.1,0.1,0.2,0.2,0.3c-0.1,0.1,0,0.2,0.1,0.3c0,0.2,0,0.4-0.1,0.6c-0.2,0-0.4,0.2-0.6,0.3
				c0.1,0.1,0.1,0.1,0.2,0.2c-0.2,0.1-0.6,0.3-0.7,0c0,0-0.1,0-0.2,0c0,0,0,0.1,0,0.1c0.2,0,0.3,0.1,0.4,0.2c-0.4-0.1-0.8,0-1.1-0.1
				c0,0-0.1-0.1-0.1-0.2c-0.1,0-0.1,0-0.1,0.1c-0.2-0.1-0.3-0.1-0.5-0.2c0,0,0.1-0.1,0.1-0.1c-0.3-0.1-0.6-0.3-0.6-0.7
				c0.2,0.2,0.2,0.4,0.5,0.4c0-0.1-0.1-0.2-0.2-0.3c0.1-0.1,0.2-0.2,0.2-0.3c-0.2,0-0.4,0.1-0.6,0.1c0.1-0.1,0.2-0.1,0.3-0.2
				c-0.3-0.3-0.4-0.6-0.7-0.9C37.9,9.1,38,9,38.1,9c-0.1-0.1-0.2-0.1-0.3-0.2c0,0,0-0.1,0-0.2c0,0,0.1-0.1,0.2-0.1
				c0,0-0.1-0.1-0.1-0.1c0,0,0.1-0.1,0.1-0.2c-0.1,0-0.2,0-0.3,0l0-0.1c0.1,0,0.2,0,0.2,0c0-0.1,0-0.2,0-0.2c-0.1,0-0.2,0-0.2,0
				c0.1-0.1,0.1-0.3-0.1-0.4c0,0,0-0.1,0-0.2c-0.1,0-0.1-0.1-0.2-0.1c0.1-0.1,0.3-0.3,0-0.4c0.1-0.1,0.1-0.2,0.2-0.3
				c0,0-0.1-0.1-0.1-0.1c0,0,0.1,0,0.2,0c0,0,0-0.1,0-0.2c0,0-0.1,0-0.2,0c0,0,0.1-0.1,0.1-0.1c-0.1-0.2-0.1-0.4,0-0.6
				c-0.4-0.1,0-0.3,0.2-0.4C37.9,5,37.8,5,37.7,4.9z M38,4.7 M38.2,5.6 M38,6 M40.9,8.3c0.1,0,0.2,0,0.1-0.1
				C40.9,8.2,40.8,8.2,40.9,8.3z M41,8.4c-0.1,0-0.2,0.3,0,0.2C41.1,8.6,41.1,8.3,41,8.4z M40.9,8.8 M40.4,10.8c0.2,0,0.3,0,0.4,0
				c0,0,0.1-0.1,0.1-0.2C40.8,10.6,40.5,10.6,40.4,10.8z M40.2,10.9"/>
		</g>
	</g>
</g>
</svg>
