<?xml version="1.0" encoding="utf-8"?>
<!-- Generator: Adobe Illustrator 18.1.0, SVG Export Plug-In . SVG Version: 6.00 Build 0)  -->
<svg version="1.1" id="Livello_1" xmlns="http://www.w3.org/2000/svg" xmlns:xlink="http://www.w3.org/1999/xlink" x="0px" y="0px"
	 viewBox="0 0 145 45" enable-background="new 0 0 145 45" xml:space="preserve">
<polygon fill="#FFFFFF" points="119.8,16.9 119.5,0.7 124.7,0.7 124.7,21.1 117.3,21.1 112.2,4.3 112.1,4.3 112.4,21.1 107.3,21.1 
	107.3,0.7 115,0.7 119.7,16.9 "/>
<polygon fill="#FFFFFF" points="27,2.6 24.2,21.3 18.6,21.3 22.4,0.7 31.6,0.7 35.4,21.3 29.9,21.3 27.1,2.6 "/>
<polygon fill="#FFFFFF" points="51.1,16.4 53.6,0.7 62,0.7 62.5,21.3 57.3,21.3 57.2,2.7 57.1,2.7 53.6,21.3 48.4,21.3 44.9,2.7 
	44.8,2.7 44.7,21.3 39.5,21.3 40,0.7 48.4,0.7 50.9,16.4 "/>
<path fill="#FFFFFF" d="M9.9,15.5c0.2,0.5,0.1,1.1,0,1.5c-0.2,0.7-0.6,1.4-2,1.4c-1.3,0-2.1-0.7-2.1-1.9l0-2H0.3l0,1.6
	c0,4.6,3.6,6,7.5,6c3.7,0,6.8-1.3,7.3-4.7c0.3-1.8,0.1-2.9,0-3.4c-0.9-4.3-8.7-5.6-9.3-8c-0.1-0.4-0.1-0.9,0-1.1
	C6,4.2,6.4,3.5,7.7,3.5c1.2,0,1.9,0.7,1.9,1.9v1.3h5.2V5.2c0-4.5-4-5.2-7-5.2C4.1,0,1.1,1.2,0.6,4.6C0.4,5.5,0.4,6.3,0.6,7.4
	C1.5,11.6,8.9,12.8,9.9,15.5"/>
<path fill="#FFFFFF" d="M77,15.4c0.2,0.5,0.1,1.1,0,1.5c-0.2,0.7-0.6,1.4-2,1.4c-1.3,0-2.1-0.7-2.1-1.8l0-2h-5.5l0,1.6
	c0,4.6,3.6,5.9,7.4,5.9c3.7,0,6.7-1.3,7.2-4.7c0.3-1.8,0.1-2.9,0-3.3c-0.9-4.3-8.6-5.6-9.2-7.9c-0.1-0.4-0.1-0.8,0-1.1
	c0.1-0.7,0.6-1.4,1.9-1.4c1.2,0,1.9,0.7,1.9,1.9v1.3h5.1V5.3c0-4.4-4-5.1-6.9-5.1c-3.6,0-6.6,1.2-7.1,4.5c-0.1,0.9-0.2,1.7,0.1,2.8
	C68.7,11.6,75.9,12.8,77,15.4"/>
<path fill="#FFFFFF" d="M94.3,18.2c1.4,0,1.9-1,2-1.5c0-0.2,0-0.5,0-0.8V0.7h5.2v14.8c0,0.4,0,1.2,0,1.4c-0.4,3.8-3.4,5.1-7.2,5.1
	c-3.8,0-6.8-1.2-7.2-5.1c0-0.2-0.1-1,0-1.4V0.7h5.2v15.3c0,0.3,0,0.6,0,0.8C92.4,17.2,92.9,18.2,94.3,18.2"/>
<path fill="#FFFFFF" d="M137.3,18c1.5,0,2-0.9,2.1-1.5c0-0.2,0.1-0.5,0-0.8v-3h-2.1v-3h7.3v5.5c0,0.4,0,0.7-0.1,1.4
	c-0.3,3.8-3.6,5.1-7.3,5.1c-3.7,0-6.9-1.3-7.3-5.1c-0.1-0.7-0.1-1-0.1-1.4l0-8.7c0-0.4,0-1,0.1-1.4c0.5-3.9,3.6-5.1,7.2-5.1
	c3.7,0,6.9,1.2,7.2,5.1c0.1,0.7,0,1.4,0,1.4l0,0.7h-5.2V6.1c0,0,0-0.5-0.1-0.8c-0.1-0.5-0.5-1.5-2.1-1.5c-1.5,0-1.9,1-2.1,1.5
	c-0.1,0.3-0.1,0.6-0.1,1v9.4c0,0.3,0,0.5,0,0.8C135.3,17,135.8,18,137.3,18"/>
<path fill="#FFFFFF" d="M2.8,42.5h3.3c0.8,0,1.5-0.2,2-0.6c0.5-0.4,0.7-1.1,0.7-1.9c0-0.9-0.3-1.6-0.9-2.1c-0.6-0.5-1.5-0.7-2.7-0.7
	H2.8V42.5z M2.8,35.7h2.4c0.9,0,1.6-0.2,2.1-0.6c0.5-0.4,0.8-1,0.8-1.8c0-0.7-0.2-1.2-0.7-1.6C7,31.2,6.4,31,5.5,31H2.8V35.7z
	 M1.1,44V29.5h4.3c1.5,0,2.6,0.3,3.4,1c0.8,0.7,1.2,1.6,1.2,2.7c0,0.9-0.3,1.6-0.8,2.1c-0.5,0.5-1.3,0.8-2.1,1
	c0.4,0,0.9,0.1,1.3,0.3c0.4,0.1,0.8,0.3,1.2,0.6c0.4,0.3,0.6,0.7,0.9,1.1c0.2,0.4,0.3,1,0.3,1.6c0,0.6-0.1,1.2-0.3,1.7
	c-0.2,0.5-0.5,0.9-0.9,1.3c-0.4,0.3-0.9,0.6-1.4,0.8C7.5,43.9,7,44,6.3,44H1.1z"/>
<path fill="#FFFFFF" d="M22,29.5v9.3c0,1.2,0.3,2.2,1,2.9c0.6,0.7,1.5,1,2.6,1c1.1,0,2-0.3,2.7-1c0.6-0.7,1-1.6,1-2.9v-9.3h1.7v9.6
	c0,0.9-0.1,1.6-0.4,2.2c-0.3,0.6-0.7,1.2-1.2,1.6c-0.5,0.4-1.1,0.7-1.7,1c-0.7,0.2-1.3,0.3-2,0.3c-0.8,0-1.4-0.1-2.1-0.3
	c-0.6-0.2-1.2-0.5-1.7-1c-0.5-0.4-0.8-1-1.1-1.6c-0.3-0.6-0.4-1.4-0.4-2.2v-9.6H22z"/>
<path fill="#FFFFFF" d="M41.8,40.9c0.4,0.6,1,1.1,1.6,1.4c0.7,0.3,1.4,0.5,2.1,0.5c0.4,0,0.7,0,1.1-0.1c0.3-0.1,0.6-0.2,0.9-0.4
	c0.3-0.2,0.5-0.5,0.6-0.8c0.2-0.3,0.2-0.7,0.2-1.1c0-0.4-0.1-0.8-0.3-1.1c-0.2-0.3-0.4-0.6-0.8-0.8c-0.3-0.2-0.7-0.5-1.1-0.7
	c-0.4-0.2-0.8-0.4-1.3-0.6c-0.5-0.2-1-0.4-1.5-0.7c-0.5-0.2-0.9-0.5-1.3-0.8c-0.4-0.3-0.7-0.7-0.9-1.1C41.1,34.1,41,33.6,41,33
	c0-0.6,0.1-1.2,0.4-1.6c0.3-0.5,0.6-0.9,1-1.2c0.4-0.3,0.9-0.5,1.4-0.7c0.5-0.2,1.1-0.2,1.7-0.2c0.9,0,1.8,0.2,2.6,0.5
	c0.8,0.4,1.5,0.9,2,1.7l-1.3,1c-0.4-0.5-0.9-0.9-1.4-1.3c-0.6-0.3-1.2-0.5-1.9-0.5c-0.9,0-1.5,0.2-2,0.6c-0.5,0.4-0.7,0.9-0.7,1.5
	c0,0.4,0.1,0.7,0.3,0.9c0.2,0.3,0.4,0.5,0.7,0.7c0.3,0.2,0.7,0.4,1.1,0.6c0.4,0.2,0.9,0.4,1.4,0.6c0.5,0.2,1,0.5,1.4,0.7
	c0.5,0.2,0.9,0.5,1.3,0.9c0.4,0.3,0.7,0.7,0.9,1.2c0.2,0.4,0.3,1,0.3,1.6c0,0.7-0.1,1.4-0.4,1.9c-0.3,0.5-0.6,1-1,1.3
	c-0.4,0.3-0.9,0.6-1.5,0.8c-0.6,0.2-1.2,0.2-1.8,0.2c-0.5,0-1-0.1-1.5-0.2c-0.5-0.1-0.9-0.3-1.4-0.5c-0.4-0.2-0.8-0.5-1.2-0.7
	c-0.4-0.3-0.7-0.6-0.9-1L41.8,40.9z"/>
<polygon fill="#FFFFFF" points="61.5,44 61.5,29.5 63.2,29.5 63.2,42.4 63.2,44 "/>
<polygon fill="#FFFFFF" points="75.2,44 75.2,29.5 76.9,29.5 84.2,40.3 84.2,29.5 85.9,29.5 85.9,44 84.6,44 76.9,32.5 76.9,44 "/>
<polygon fill="#FFFFFF" points="97.2,44 97.2,29.5 105.7,29.5 105.7,31 99,31 99,35.7 103.8,35.7 103.8,37.2 99,37.2 99,42.5 
	106.2,42.5 106.2,44 "/>
<path fill="#FFFFFF" d="M116.3,40.9c0.4,0.6,1,1.1,1.6,1.4c0.7,0.3,1.4,0.5,2.1,0.5c0.4,0,0.7,0,1.1-0.1c0.3-0.1,0.6-0.2,0.9-0.4
	c0.3-0.2,0.5-0.5,0.6-0.8c0.2-0.3,0.2-0.7,0.2-1.1c0-0.4-0.1-0.8-0.3-1.1c-0.2-0.3-0.4-0.6-0.8-0.8c-0.3-0.2-0.7-0.5-1.1-0.7
	c-0.4-0.2-0.8-0.4-1.3-0.6c-0.5-0.2-1-0.4-1.5-0.7c-0.5-0.2-0.9-0.5-1.3-0.8c-0.4-0.3-0.7-0.7-0.9-1.1c-0.2-0.4-0.4-0.9-0.4-1.5
	c0-0.6,0.1-1.2,0.4-1.6c0.3-0.5,0.6-0.9,1-1.2c0.4-0.3,0.9-0.5,1.5-0.7c0.5-0.2,1.1-0.2,1.7-0.2c0.9,0,1.8,0.2,2.6,0.5
	c0.8,0.4,1.5,0.9,2,1.7l-1.3,1c-0.4-0.5-0.9-0.9-1.4-1.3c-0.6-0.3-1.2-0.5-1.9-0.5c-0.9,0-1.5,0.2-2,0.6c-0.5,0.4-0.7,0.9-0.7,1.5
	c0,0.4,0.1,0.7,0.2,0.9c0.2,0.3,0.4,0.5,0.7,0.7c0.3,0.2,0.7,0.4,1.1,0.6c0.4,0.2,0.9,0.4,1.4,0.6c0.5,0.2,1,0.5,1.5,0.7
	c0.5,0.2,0.9,0.5,1.3,0.9c0.4,0.3,0.7,0.7,0.9,1.2c0.2,0.4,0.3,1,0.3,1.6c0,0.7-0.1,1.4-0.4,1.9c-0.3,0.5-0.6,1-1,1.3
	c-0.4,0.3-0.9,0.6-1.5,0.8c-0.6,0.2-1.2,0.2-1.8,0.2c-0.5,0-1-0.1-1.5-0.2c-0.5-0.1-0.9-0.3-1.4-0.5c-0.4-0.2-0.8-0.5-1.2-0.7
	c-0.4-0.3-0.7-0.6-0.9-1L116.3,40.9z"/>
<path fill="#FFFFFF" d="M135.6,40.9c0.4,0.6,1,1.1,1.6,1.4c0.7,0.3,1.4,0.5,2.1,0.5c0.4,0,0.7,0,1.1-0.1c0.3-0.1,0.6-0.2,0.9-0.4
	c0.3-0.2,0.5-0.5,0.6-0.8c0.2-0.3,0.2-0.7,0.2-1.1c0-0.4-0.1-0.8-0.3-1.1c-0.2-0.3-0.4-0.6-0.8-0.8c-0.3-0.2-0.7-0.5-1.1-0.7
	c-0.4-0.2-0.8-0.4-1.3-0.6c-0.5-0.2-1-0.4-1.5-0.7c-0.5-0.2-0.9-0.5-1.3-0.8c-0.4-0.3-0.7-0.7-0.9-1.1c-0.2-0.4-0.4-0.9-0.4-1.5
	c0-0.6,0.1-1.2,0.4-1.6c0.3-0.5,0.6-0.9,1-1.2c0.4-0.3,0.9-0.5,1.5-0.7c0.5-0.2,1.1-0.2,1.7-0.2c0.9,0,1.8,0.2,2.6,0.5
	c0.8,0.4,1.5,0.9,2,1.7l-1.3,1c-0.4-0.5-0.9-0.9-1.4-1.3c-0.6-0.3-1.2-0.5-1.9-0.5c-0.9,0-1.5,0.2-2,0.6c-0.5,0.4-0.7,0.9-0.7,1.5
	c0,0.4,0.1,0.7,0.3,0.9c0.2,0.3,0.4,0.5,0.7,0.7c0.3,0.2,0.7,0.4,1.1,0.6c0.4,0.2,0.9,0.4,1.4,0.6c0.5,0.2,1,0.5,1.4,0.7
	c0.5,0.2,0.9,0.5,1.3,0.9c0.4,0.3,0.7,0.7,0.9,1.2c0.2,0.4,0.3,1,0.3,1.6c0,0.7-0.1,1.4-0.4,1.9c-0.3,0.5-0.6,1-1,1.3
	c-0.4,0.3-0.9,0.6-1.5,0.8c-0.6,0.2-1.2,0.2-1.8,0.2c-0.5,0-1-0.1-1.5-0.2c-0.5-0.1-0.9-0.3-1.4-0.5c-0.4-0.2-0.8-0.5-1.2-0.7
	c-0.4-0.3-0.7-0.6-0.9-1L135.6,40.9z"/>
<polygon fill="#FFFFFF" points="119.8,16.9 119.5,0.7 124.7,0.7 124.7,21.1 117.3,21.1 112.2,4.3 112.1,4.3 112.4,21.1 107.3,21.1 
	107.3,0.7 115,0.7 119.7,16.9 "/>
<polygon fill="#FFFFFF" points="27,2.6 24.2,21.3 18.6,21.3 22.4,0.7 31.6,0.7 35.4,21.3 29.9,21.3 27.1,2.6 "/>
<polygon fill="#FFFFFF" points="51.1,16.4 53.6,0.7 62,0.7 62.5,21.3 57.3,21.3 57.2,2.7 57.1,2.7 53.6,21.3 48.4,21.3 44.9,2.7 
	44.8,2.7 44.7,21.3 39.5,21.3 40,0.7 48.4,0.7 50.9,16.4 "/>
<path fill="#FFFFFF" d="M9.9,15.5c0.2,0.5,0.1,1.1,0,1.5c-0.2,0.7-0.6,1.4-2,1.4c-1.3,0-2.1-0.7-2.1-1.9l0-2H0.3l0,1.6
	c0,4.6,3.6,6,7.5,6c3.7,0,6.8-1.3,7.3-4.7c0.3-1.8,0.1-2.9,0-3.4c-0.9-4.3-8.7-5.6-9.3-8c-0.1-0.4-0.1-0.9,0-1.1
	C6,4.2,6.4,3.5,7.7,3.5c1.2,0,1.9,0.7,1.9,1.9v1.3h5.2V5.2c0-4.5-4-5.2-7-5.2C4.1,0,1.1,1.2,0.6,4.6C0.4,5.5,0.4,6.3,0.6,7.4
	C1.5,11.6,8.9,12.8,9.9,15.5"/>
<path fill="#FFFFFF" d="M77,15.4c0.2,0.5,0.1,1.1,0,1.5c-0.2,0.7-0.6,1.4-2,1.4c-1.3,0-2.1-0.7-2.1-1.8l0-2h-5.5l0,1.6
	c0,4.6,3.6,5.9,7.4,5.9c3.7,0,6.7-1.3,7.2-4.7c0.3-1.8,0.1-2.9,0-3.3c-0.9-4.3-8.6-5.6-9.2-7.9c-0.1-0.4-0.1-0.8,0-1.1
	c0.1-0.7,0.6-1.4,1.9-1.4c1.2,0,1.9,0.7,1.9,1.9v1.3h5.1V5.3c0-4.4-4-5.1-6.9-5.1c-3.6,0-6.6,1.2-7.1,4.5c-0.1,0.9-0.2,1.7,0.1,2.8
	C68.7,11.6,75.9,12.8,77,15.4"/>
<path fill="#FFFFFF" d="M94.3,18.2c1.4,0,1.9-1,2-1.5c0-0.2,0-0.5,0-0.8V0.7h5.2v14.8c0,0.4,0,1.2,0,1.4c-0.4,3.8-3.4,5.1-7.2,5.1
	c-3.8,0-6.8-1.2-7.2-5.1c0-0.2-0.1-1,0-1.4V0.7h5.2v15.3c0,0.3,0,0.6,0,0.8C92.4,17.2,92.9,18.2,94.3,18.2"/>
<path fill="#FFFFFF" d="M137.3,18c1.5,0,2-0.9,2.1-1.5c0-0.2,0.1-0.5,0-0.8v-3h-2.1v-3h7.3v5.5c0,0.4,0,0.7-0.1,1.4
	c-0.3,3.8-3.6,5.1-7.3,5.1c-3.7,0-6.9-1.3-7.3-5.1c-0.1-0.7-0.1-1-0.1-1.4l0-8.7c0-0.4,0-1,0.1-1.4c0.5-3.9,3.6-5.1,7.2-5.1
	c3.7,0,6.9,1.2,7.2,5.1c0.1,0.7,0,1.4,0,1.4l0,0.7h-5.2V6.1c0,0,0-0.5-0.1-0.8c-0.1-0.5-0.5-1.5-2.1-1.5c-1.5,0-1.9,1-2.1,1.5
	c-0.1,0.3-0.1,0.6-0.1,1v9.4c0,0.3,0,0.5,0,0.8C135.3,17,135.8,18,137.3,18"/>
<path fill="#FFFFFF" d="M2.8,42.5h3.3c0.8,0,1.5-0.2,2-0.6c0.5-0.4,0.7-1.1,0.7-1.9c0-0.9-0.3-1.6-0.9-2.1c-0.6-0.5-1.5-0.7-2.7-0.7
	H2.8V42.5z M2.8,35.7h2.4c0.9,0,1.6-0.2,2.1-0.6c0.5-0.4,0.8-1,0.8-1.8c0-0.7-0.2-1.2-0.7-1.6C7,31.2,6.4,31,5.5,31H2.8V35.7z
	 M1.1,44V29.5h4.3c1.5,0,2.6,0.3,3.4,1c0.8,0.7,1.2,1.6,1.2,2.7c0,0.9-0.3,1.6-0.8,2.1c-0.5,0.5-1.3,0.8-2.1,1
	c0.4,0,0.9,0.1,1.3,0.3c0.4,0.1,0.8,0.3,1.2,0.6c0.4,0.3,0.6,0.7,0.9,1.1c0.2,0.4,0.3,1,0.3,1.6c0,0.6-0.1,1.2-0.3,1.7
	c-0.2,0.5-0.5,0.9-0.9,1.3c-0.4,0.3-0.9,0.6-1.4,0.8C7.5,43.9,7,44,6.3,44H1.1z"/>
<path fill="#FFFFFF" d="M22,29.5v9.3c0,1.2,0.3,2.2,1,2.9c0.6,0.7,1.5,1,2.6,1c1.1,0,2-0.3,2.7-1c0.6-0.7,1-1.6,1-2.9v-9.3h1.7v9.6
	c0,0.9-0.1,1.6-0.4,2.2c-0.3,0.6-0.7,1.2-1.2,1.6c-0.5,0.4-1.1,0.7-1.7,1c-0.7,0.2-1.3,0.3-2,0.3c-0.8,0-1.4-0.1-2.1-0.3
	c-0.6-0.2-1.2-0.5-1.7-1c-0.5-0.4-0.8-1-1.1-1.6c-0.3-0.6-0.4-1.4-0.4-2.2v-9.6H22z"/>
<path fill="#FFFFFF" d="M41.8,40.9c0.4,0.6,1,1.1,1.6,1.4c0.7,0.3,1.4,0.5,2.1,0.5c0.4,0,0.7,0,1.1-0.1c0.3-0.1,0.6-0.2,0.9-0.4
	c0.3-0.2,0.5-0.5,0.6-0.8c0.2-0.3,0.2-0.7,0.2-1.1c0-0.4-0.1-0.8-0.3-1.1c-0.2-0.3-0.4-0.6-0.8-0.8c-0.3-0.2-0.7-0.5-1.1-0.7
	c-0.4-0.2-0.8-0.4-1.3-0.6c-0.5-0.2-1-0.4-1.5-0.7c-0.5-0.2-0.9-0.5-1.3-0.8c-0.4-0.3-0.7-0.7-0.9-1.1C41.1,34.1,41,33.6,41,33
	c0-0.6,0.1-1.2,0.4-1.6c0.3-0.5,0.6-0.9,1-1.2c0.4-0.3,0.9-0.5,1.4-0.7c0.5-0.2,1.1-0.2,1.7-0.2c0.9,0,1.8,0.2,2.6,0.5
	c0.8,0.4,1.5,0.9,2,1.7l-1.3,1c-0.4-0.5-0.9-0.9-1.4-1.3c-0.6-0.3-1.2-0.5-1.9-0.5c-0.9,0-1.5,0.2-2,0.6c-0.5,0.4-0.7,0.9-0.7,1.5
	c0,0.4,0.1,0.7,0.3,0.9c0.2,0.3,0.4,0.5,0.7,0.7c0.3,0.2,0.7,0.4,1.1,0.6c0.4,0.2,0.9,0.4,1.4,0.6c0.5,0.2,1,0.5,1.4,0.7
	c0.5,0.2,0.9,0.5,1.3,0.9c0.4,0.3,0.7,0.7,0.9,1.2c0.2,0.4,0.3,1,0.3,1.6c0,0.7-0.1,1.4-0.4,1.9c-0.3,0.5-0.6,1-1,1.3
	c-0.4,0.3-0.9,0.6-1.5,0.8c-0.6,0.2-1.2,0.2-1.8,0.2c-0.5,0-1-0.1-1.5-0.2c-0.5-0.1-0.9-0.3-1.4-0.5c-0.4-0.2-0.8-0.5-1.2-0.7
	c-0.4-0.3-0.7-0.6-0.9-1L41.8,40.9z"/>
<polygon fill="#FFFFFF" points="61.5,44 61.5,29.5 63.2,29.5 63.2,42.4 63.2,44 "/>
<polygon fill="#FFFFFF" points="75.2,44 75.2,29.5 76.9,29.5 84.2,40.3 84.2,29.5 85.9,29.5 85.9,44 84.6,44 76.9,32.5 76.9,44 "/>
<polygon fill="#FFFFFF" points="97.2,44 97.2,29.5 105.7,29.5 105.7,31 99,31 99,35.7 103.8,35.7 103.8,37.2 99,37.2 99,42.5 
	106.2,42.5 106.2,44 "/>
<path fill="#FFFFFF" d="M116.3,40.9c0.4,0.6,1,1.1,1.6,1.4c0.7,0.3,1.4,0.5,2.1,0.5c0.4,0,0.7,0,1.1-0.1c0.3-0.1,0.6-0.2,0.9-0.4
	c0.3-0.2,0.5-0.5,0.6-0.8c0.2-0.3,0.2-0.7,0.2-1.1c0-0.4-0.1-0.8-0.3-1.1c-0.2-0.3-0.4-0.6-0.8-0.8c-0.3-0.2-0.7-0.5-1.1-0.7
	c-0.4-0.2-0.8-0.4-1.3-0.6c-0.5-0.2-1-0.4-1.5-0.7c-0.5-0.2-0.9-0.5-1.3-0.8c-0.4-0.3-0.7-0.7-0.9-1.1c-0.2-0.4-0.4-0.9-0.4-1.5
	c0-0.6,0.1-1.2,0.4-1.6c0.3-0.5,0.6-0.9,1-1.2c0.4-0.3,0.9-0.5,1.5-0.7c0.5-0.2,1.1-0.2,1.7-0.2c0.9,0,1.8,0.2,2.6,0.5
	c0.8,0.4,1.5,0.9,2,1.7l-1.3,1c-0.4-0.5-0.9-0.9-1.4-1.3c-0.6-0.3-1.2-0.5-1.9-0.5c-0.9,0-1.5,0.2-2,0.6c-0.5,0.4-0.7,0.9-0.7,1.5
	c0,0.4,0.1,0.7,0.2,0.9c0.2,0.3,0.4,0.5,0.7,0.7c0.3,0.2,0.7,0.4,1.1,0.6c0.4,0.2,0.9,0.4,1.4,0.6c0.5,0.2,1,0.5,1.5,0.7
	c0.5,0.2,0.9,0.5,1.3,0.9c0.4,0.3,0.7,0.7,0.9,1.2c0.2,0.4,0.3,1,0.3,1.6c0,0.7-0.1,1.4-0.4,1.9c-0.3,0.5-0.6,1-1,1.3
	c-0.4,0.3-0.9,0.6-1.5,0.8c-0.6,0.2-1.2,0.2-1.8,0.2c-0.5,0-1-0.1-1.5-0.2c-0.5-0.1-0.9-0.3-1.4-0.5c-0.4-0.2-0.8-0.5-1.2-0.7
	c-0.4-0.3-0.7-0.6-0.9-1L116.3,40.9z"/>
<path fill="#FFFFFF" d="M135.6,40.9c0.4,0.6,1,1.1,1.6,1.4c0.7,0.3,1.4,0.5,2.1,0.5c0.4,0,0.7,0,1.1-0.1c0.3-0.1,0.6-0.2,0.9-0.4
	c0.3-0.2,0.5-0.5,0.6-0.8c0.2-0.3,0.2-0.7,0.2-1.1c0-0.4-0.1-0.8-0.3-1.1c-0.2-0.3-0.4-0.6-0.8-0.8c-0.3-0.2-0.7-0.5-1.1-0.7
	c-0.4-0.2-0.8-0.4-1.3-0.6c-0.5-0.2-1-0.4-1.5-0.7c-0.5-0.2-0.9-0.5-1.3-0.8c-0.4-0.3-0.7-0.7-0.9-1.1c-0.2-0.4-0.4-0.9-0.4-1.5
	c0-0.6,0.1-1.2,0.4-1.6c0.3-0.5,0.6-0.9,1-1.2c0.4-0.3,0.9-0.5,1.5-0.7c0.5-0.2,1.1-0.2,1.7-0.2c0.9,0,1.8,0.2,2.6,0.5
	c0.8,0.4,1.5,0.9,2,1.7l-1.3,1c-0.4-0.5-0.9-0.9-1.4-1.3c-0.6-0.3-1.2-0.5-1.9-0.5c-0.9,0-1.5,0.2-2,0.6c-0.5,0.4-0.7,0.9-0.7,1.5
	c0,0.4,0.1,0.7,0.3,0.9c0.2,0.3,0.4,0.5,0.7,0.7c0.3,0.2,0.7,0.4,1.1,0.6c0.4,0.2,0.9,0.4,1.4,0.6c0.5,0.2,1,0.5,1.4,0.7
	c0.5,0.2,0.9,0.5,1.3,0.9c0.4,0.3,0.7,0.7,0.9,1.2c0.2,0.4,0.3,1,0.3,1.6c0,0.7-0.1,1.4-0.4,1.9c-0.3,0.5-0.6,1-1,1.3
	c-0.4,0.3-0.9,0.6-1.5,0.8c-0.6,0.2-1.2,0.2-1.8,0.2c-0.5,0-1-0.1-1.5-0.2c-0.5-0.1-0.9-0.3-1.4-0.5c-0.4-0.2-0.8-0.5-1.2-0.7
	c-0.4-0.3-0.7-0.6-0.9-1L135.6,40.9z"/>
</svg>
