<?xml version="1.0" encoding="utf-8"?>
<!-- Generator: Adobe Illustrator 18.1.0, SVG Export Plug-In . SVG Version: 6.00 Build 0)  -->
<svg version="1.1" xmlns="http://www.w3.org/2000/svg" xmlns:xlink="http://www.w3.org/1999/xlink" x="0px" y="0px"
	 viewBox="-17.5 0 1208.1 841.9" enable-background="new -17.5 0 1208.1 841.9" xml:space="preserve">
<g id="Livello_2">
</g>
<g id="Livello_1">
	<g>
		<g>
			<path fill="#FFFFFF" d="M817.5,371.7c7.2,7.7,10.8,19,10.8,33.4c0,15.4-3.6,27.2-10.8,35.4c-7.2,8.2-15.9,12.3-27.2,12.3
				c-7.2,0-12.8-1.5-17.4-5.1c-2.6-2.1-5.1-4.6-7.7-8.7v46.2H742V361.9h22.1v12.8c2.6-3.6,5.1-6.7,8.2-9.2
				c5.1-4.1,11.3-6.2,18.5-6.2C801.6,360.4,810.3,364,817.5,371.7z M799.5,388.6c-3.1-5.1-8.2-7.7-15.4-7.7
				c-8.2,0-14.4,4.1-17.4,11.8c-1.5,4.1-2.6,9.8-2.6,15.9c0,10.3,2.6,17.4,8.2,21.6c3.1,2.6,7.2,3.6,11.8,3.6
				c6.7,0,11.3-2.6,14.9-7.7s5.1-11.8,5.1-20C804.1,399.4,802.6,393.7,799.5,388.6z"/>
			<path fill="#FFFFFF" d="M839.5,363h25.1v66.2h49.8v21.6h-74.9L839.5,363L839.5,363z"/>
			<path fill="#FFFFFF" d="M964.8,396.8c4.1-0.5,7.2-1,9.2-2.1c3.1-1.5,5.1-3.6,5.1-6.7c0-3.6-1-6.2-3.6-7.7
				c-2.6-1.5-6.2-2.1-11.3-2.1c-5.6,0-9.2,1.5-11.8,4.1c-1.5,2.1-2.6,4.6-3.1,8.2h-22.1c0.5-7.7,2.6-13.9,6.7-19
				c6.2-7.7,16.4-11.8,31.8-11.8c9.8,0,18.5,2.1,25.7,5.6c7.7,3.6,11.3,11.3,11.3,21.6v40.5c0,2.6,0,6.2,0,10.3
				c0,3.1,0.5,5.1,1.5,6.2c0.5,1,2.1,2.1,3.6,2.6v3.6h-25.1c-0.5-1.5-1-3.6-1.5-5.1c-0.5-1.5-0.5-3.6-0.5-5.1
				c-3.1,3.6-6.7,6.2-11.3,8.7c-5.1,3.1-10.8,4.1-16.9,4.1c-8.2,0-14.9-2.1-20-6.7c-5.1-4.6-7.7-11.3-7.7-19.5
				c0-10.8,4.1-18.5,12.8-23.6c4.6-2.6,11.3-4.6,20.5-5.6L964.8,396.8z M979.1,407.6c-1.5,1-3.1,1.5-4.6,2.1c-1.5,0.5-3.6,1-6.2,1.5
				l-5.1,1c-5.1,1-8.2,2.1-10.8,3.1c-3.6,2.1-5.6,5.1-5.6,9.8c0,4.1,1,6.7,3.1,8.7c2.1,1.5,5.1,2.6,8.2,2.6c5.1,0,9.8-1.5,13.9-4.6
				c4.1-3.1,6.7-8.2,6.7-15.9v-8.2H979.1z"/>
			<path fill="#FFFFFF" d="M1069.4,393.7c-0.5-3.1-1.5-6.2-3.1-8.7c-2.6-3.6-6.7-5.1-12.3-5.1c-7.7,0-13.3,4.1-15.9,11.8
				c-1.5,4.1-2.1,9.8-2.1,16.4c0,6.7,0.5,11.8,2.1,15.4c2.6,7.2,8.2,10.8,15.4,10.8c5.6,0,9.2-1.5,11.3-4.6
				c2.1-3.1,3.6-6.7,4.1-11.3h23.6c-0.5,7.2-3.1,13.9-7.7,20c-7.2,10.3-18,15.4-32.3,15.4s-24.6-4.1-31.3-12.8
				c-6.7-8.2-10.3-19.5-10.3-32.8c0-15.4,3.6-27.2,11.3-35.4c7.2-8.2,17.4-12.8,30.8-12.8c11.3,0,20,2.6,27.2,7.7
				c7.2,5.1,11.3,13.9,12.3,26.2C1092.5,393.7,1069.4,393.7,1069.4,393.7z"/>
			<path fill="#FFFFFF" d="M1166.9,364c6.2,2.6,11.3,7.2,15.4,12.8c3.6,5.1,6.2,11.3,7.2,18.5c0.5,4.1,1,9.8,0.5,17.4h-64.1
				c0.5,8.7,3.6,14.9,9.2,18.5c3.6,2.1,7.7,3.1,12.8,3.1c5.1,0,9.8-1.5,12.8-4.1c1.5-1.5,3.6-3.6,4.6-6.2h23.6
				c-0.5,5.1-3.6,10.8-8.7,15.9c-7.7,8.7-19,12.8-33.4,12.8c-11.8,0-22.1-3.6-31.3-10.8c-9.2-7.2-13.3-19-13.3-35.4
				c0-15.4,4.1-27.2,12.3-35.4c8.2-8.2,18.5-12.3,31.8-12.3C1154.1,359.9,1160.8,361.4,1166.9,364z M1132.6,384
				c-3.1,3.6-5.1,7.7-6.2,13.9h40c-0.5-6.2-2.6-10.8-6.2-13.9s-8.2-4.6-13.9-4.6C1140.3,378.9,1135.6,380.4,1132.6,384z"/>
		</g>
		<g>
			<path fill="#77BC1F" d="M642.5,451.2l30.3-44.6L644,363h28.2l14.9,25.7l14.4-25.7h27.7L700,406.1l30.3,45.2h-28.7l-15.4-26.7
				l-15.4,26.7H642.5z"/>
		</g>
	</g>
	<g>
		<path fill="#FFFFFF" d="M-17.5,379.6h7.8v5.7c0,2.6,0,4.7,0,4.7l0,0c0,0,4.7-11.5,20.3-11.5s25.5,12.5,25.5,30.7
			c0,18.8-10.9,30.7-26.1,30.7c-14.1,0-19.3-11.5-19.3-11.5l0,0c0,0,0,2.1,0,5.2V462H-17v-82.3H-17.5z M9.1,432.8
			c10.4,0,18.8-8.9,18.8-24c0-14.6-7.8-23.5-18.8-23.5c-9.9,0-19.3,6.8-19.3,24C-9.7,420.8-3.4,432.8,9.1,432.8z"/>
		<path fill="#FFFFFF" d="M77.9,378.1c17.2,0,31.3,13,31.3,30.7c0,17.7-14.1,31.3-31.3,31.3s-31.3-13.5-31.3-31.3
			C47.1,391.1,60.7,378.1,77.9,378.1z M77.9,432.8c12.5,0,22.9-10.4,22.9-24c0-13.5-10.4-23.5-22.9-23.5s-22.9,9.9-22.9,23.5
			C54.9,422.4,65.3,432.8,77.9,432.8z"/>
		<path fill="#FFFFFF" d="M116.4,379.6h8.3l14.1,43.8c1,2.6,1.6,6.3,1.6,6.3l0,0c0,0,1-3.6,1.6-6.3l14.6-43.8h7.8l14.6,43.8
			c1,2.6,1.6,6.3,1.6,6.3l0,0c0,0,1-3.6,1.6-6.3l14.1-43.8h9.9l-19.8,58.9h-8.9l-14.6-41.7c-1-3.1-2.1-6.3-2.1-6.3l0,0
			c0,0-1,3.6-1.6,6.3l-14.6,41.7h-8.9L116.4,379.6z"/>
		<path fill="#FFFFFF" d="M242.5,378.1c16.2,0,24.5,12.5,24.5,27.1c0,1.6,0,4.2,0,4.2h-45.3c0.5,15.1,10.4,23.5,22.9,23.5
			c10.9,0,17.7-7.3,17.7-7.3l3.6,6.3c0,0-8.3,8.3-21.9,8.3c-17.7,0-30.7-12.5-30.7-30.7C213.3,389.6,226.4,378.1,242.5,378.1z
			 M259.2,402.6c-0.5-12.5-7.8-18.2-16.7-18.2c-9.9,0-18.2,6.3-20.3,18.2H259.2z"/>
		<path fill="#FFFFFF" d="M348.9,378.1c16.2,0,24.5,12.5,24.5,27.1c0,1.6,0,4.2,0,4.2h-45.3c0.5,15.1,10.4,23.5,22.9,23.5
			c10.9,0,17.7-7.3,17.7-7.3l3.6,6.3c0,0-8.3,8.3-21.9,8.3c-17.7,0-30.7-12.5-30.7-30.7C319.7,389.6,332.8,378.1,348.9,378.1z
			 M365.6,402.6c-0.5-12.5-7.8-18.2-16.7-18.2c-9.9,0-18.2,6.3-20.3,18.2H365.6z"/>
		<path fill="#FFFFFF" d="M282.1,379.6h7.8v10.4c0,2.6,0,4.7,0,4.7l0,0c2.6-8.9,9.4-15.6,18.8-15.6c1.6,0,3.1,0.5,3.1,0.5v7.8
			c0,0-1.6,0-3.1,0c-8.3,0-14.6,6.8-17.2,15.1c-1,3.6-1.6,7.8-1.6,11.5v25h-7.8L282.1,379.6L282.1,379.6z"/>
		<path fill="#FFFFFF" d="M413.6,378.1c14.1,0,19.3,10.9,19.3,10.9l0,0c0,0,0-2.1,0-4.7v-28.1h7.8v82.3h-7.8v-6.3c0-2.6,0-4.2,0-4.2
			l0,0c0,0-4.7,12-20.3,12c-15.6,0-25.5-12.5-25.5-30.7C387.6,390.1,398.5,378.1,413.6,378.1z M414.1,432.8c9.9,0,19.3-6.8,19.3-24
			c0-12-6.3-23.5-18.8-23.5c-10.4,0-18.8,8.9-18.8,23.5C395.4,423.4,403.2,432.8,414.1,432.8z"/>
		<path fill="#FFFFFF" d="M491.3,356.2h7.8v28.7c0,2.6,0,4.7,0,4.7l0,0c0,0,4.7-11.5,19.8-11.5c15.6,0,25.5,12.5,25.5,30.7
			c0,18.8-10.9,30.7-26.6,30.7c-14.1,0-19.3-11.5-19.3-11.5l0,0c0,0,0,2.1,0,4.7v5.2h-7.8v-81.8H491.3z M517.8,432.8
			c10.4,0,18.8-8.9,18.8-24c0-14.6-7.8-23.5-18.8-23.5c-9.9,0-19.3,6.8-19.3,24C499.1,420.8,505.3,432.8,517.8,432.8z"/>
		<path fill="#FFFFFF" d="M554.8,453.1c0,0,3.1,2.6,6.8,2.6c5.2,0,8.9-4.2,10.9-9.4l3.6-8.3l-24.5-58.4h8.9l17.2,42.7
			c1,3.1,2.1,6.3,2.1,6.3l0,0c0,0,1-3.1,2.1-6.3l17.2-42.7h8.9l-29.2,70.9c-3.1,7.3-8.9,12.5-17.2,12.5c-6.3,0-10.4-3.6-10.4-3.6
			L554.8,453.1z"/>
	</g>
</g>
</svg>
