<?xml version="1.0" encoding="utf-8"?>
<!-- Generator: Adobe Illustrator 18.1.0, SVG Export Plug-In . SVG Version: 6.00 Build 0)  -->
<svg version="1.1" id="Livello_1" xmlns="http://www.w3.org/2000/svg" xmlns:xlink="http://www.w3.org/1999/xlink" x="0px" y="0px"
	 viewBox="0 0 1190.6 841.9" enable-background="new 0 0 1190.6 841.9" xml:space="preserve">
<g>
	<g>
		<path fill="#333333" d="M380.2,447.8c15.8,16.6,23.7,41.1,23.7,72.7c0,34-7.9,59.3-22.9,77.5c-15,17.4-34.8,26.9-59.3,26.9
			c-15,0-28.5-4-37.9-11.1c-5.5-4-11.1-10.3-16.6-18.2v100.4h-49.8V427.3h48.2v28.5c5.5-8.7,11.1-15,17.4-19.8
			c11.1-8.7,24.5-12.6,40.3-12.6C345.5,423.3,364.4,432,380.2,447.8z M341.5,484.2c-7.1-11.1-18.2-17.4-33.2-17.4
			c-18.2,0-30.8,8.7-37.9,26.1c-4,9.5-5.5,20.6-5.5,34.8c0,22.1,6.3,37.9,18.2,46.6c7.1,5.5,15.8,7.9,25.3,7.9
			c14.2,0,24.5-5.5,32.4-16.6c7.1-11.1,11.1-25.3,11.1-43.5C351.8,508.7,348.6,496,341.5,484.2z"/>
		<path fill="#333333" d="M428.5,428.9H483v143.9h108.3v46.6H428.5V428.9z"/>
		<path fill="#333333" d="M700.4,503.2c9.5-0.8,15.8-2.4,19.8-4.7c7.1-3.2,11.1-7.9,11.1-14.2c0-7.9-2.4-13.4-7.9-16.6
			c-5.5-3.2-13.4-4.7-24.5-4.7c-11.9,0-20.6,3.2-25.3,8.7c-4,4-6.3,10.3-7.1,17.4h-48.2c0.8-16.6,5.5-30.8,14.2-41.1
			c13.4-16.6,36.4-25.3,68.8-25.3c21.3,0,39.5,4,56.1,12.6s24.5,23.7,24.5,47.4v87.7c0,6.3,0,13.4,0,22.1c0,6.3,1.6,11.1,3.2,13.4
			c1.6,2.4,4,4,7.1,5.5v7.1h-54.5c-1.6-4-2.4-7.9-3.2-11.1s-0.8-7.1-1.6-11.9c-7.1,7.9-15,14.2-24.5,19c-11.1,6.3-22.9,9.5-37.2,9.5
			c-17.4,0-31.6-4.7-43.5-15c-11.1-10.3-17.4-23.7-17.4-41.9c0-23.7,9.5-40.3,27.7-51.4c10.3-5.5,24.5-9.5,44.3-12.6L700.4,503.2z
			 M731.2,526.1c-3.2,2.4-6.3,4-9.5,4.7c-3.2,1.6-7.9,2.4-13.4,3.2l-11.1,2.4c-11.1,1.6-18.2,4-22.9,7.1
			c-7.9,4.7-11.9,11.9-11.9,21.3c0,8.7,2.4,15,7.1,18.2c4.7,4,11.1,5.5,17.4,5.5c11.1,0,21.3-3.2,30-9.5
			c9.5-6.3,14.2-18.2,14.2-34.8L731.2,526.1L731.2,526.1z"/>
		<path fill="#333333" d="M928.9,496.8c-0.8-7.1-3.2-13.4-7.1-19.8c-5.5-7.9-14.2-11.9-26.1-11.9c-16.6,0-28.5,8.7-34.8,25.3
			c-3.2,8.7-4.7,20.6-4.7,35.6c0,14.2,1.6,25.3,4.7,34c6.3,15.8,17.4,23.7,34,23.7c11.9,0,19.8-3.2,25.3-9.5
			c4.7-6.3,7.9-14.2,8.7-24.5h51.4c-0.8,15-6.3,30-16.6,43.5c-15.8,22.1-38.7,33.2-70.4,33.2c-30.8,0-53.8-9.5-68-27.7
			c-14.2-18.2-22.1-41.9-22.1-71.1c0-33.2,7.9-58.5,24.5-76.7c15.8-18.2,38.7-27.7,66.4-27.7c23.7,0,43.5,5.5,59.3,15.8
			c15,11.1,24.5,30,26.9,56.9h-51.4V496.8z"/>
		<path fill="#333333" d="M1140,431.2c13.4,6.3,24.5,15.8,33.2,28.5c7.9,11.1,12.6,24.5,15,39.5c1.6,8.7,1.6,21.3,1.6,37.9h-139.9
			c0.8,19,7.1,32.4,19.8,40.3c7.9,4.7,16.6,7.1,27.7,7.1c11.1,0,20.6-3.2,27.7-8.7c4-3.2,7.1-7.9,10.3-13.4h51.4
			c-1.6,11.1-7.9,22.9-19,34.8c-17.4,19-41.1,27.7-71.9,27.7c-25.3,0-48.2-7.9-68-23.7c-19.8-15.8-29.2-41.1-29.2-76.7
			c0-33.2,8.7-58.5,26.1-76.7c17.4-17.4,40.3-26.9,68.8-26.9C1111.5,422.5,1126.5,425.7,1140,431.2z M1064.9,474.7
			c-7.1,7.1-11.9,17.4-13.4,30h87c-0.8-13.4-5.5-23.7-13.4-30c-7.9-7.1-18.2-10.3-30-10.3C1082.2,463.6,1072,467.6,1064.9,474.7z"/>
	</g>
	<g>
		<path fill="#77BC1F" d="M0,620.2l65.6-97.2L2.4,428.1H64l32.4,56.1l31.6-56.1h60.1l-63.2,94.1l65.6,98h-62.5l-33.2-57.7
			l-33.2,57.7H0L0,620.2z"/>
	</g>
</g>
<g>
	<path fill="#313131" d="M120.4,182.2h11.9v8.7c0,4,0,7.1,0,7.1l0,0c0,0,7.1-17.4,30.8-17.4s38.7,19,38.7,46.6
		c0,28.5-16.6,46.6-39.5,46.6c-21.3,0-29.2-17.4-29.2-17.4l0,0c0,0,0,3.2,0,7.9v42.7h-11.9V182.2H120.4z M160.8,262.8
		c15.8,0,28.5-13.4,28.5-36.4c0-22.1-11.9-35.6-28.5-35.6c-15,0-29.2,10.3-29.2,36.4C132.3,244.7,141.8,262.8,160.8,262.8z"/>
	<path fill="#313131" d="M265.1,179.8c26.1,0,47.4,19.8,47.4,46.6s-21.3,47.4-47.4,47.4c-26.1,0-47.4-20.6-47.4-47.4
		C218.5,199.6,239,179.8,265.1,179.8z M265.1,262.8c19,0,34.8-15.8,34.8-36.4s-15.8-35.6-34.8-35.6s-34.8,15-34.8,35.6
		S246.1,262.8,265.1,262.8z"/>
	<path fill="#313131" d="M323.6,182.2h12.6l21.3,66.4c1.6,4,2.4,9.5,2.4,9.5l0,0c0,0,1.6-5.5,2.4-9.5l22.1-66.4h11.9l22.1,66.4
		c1.6,4,2.4,9.5,2.4,9.5l0,0c0,0,1.6-5.5,2.4-9.5l21.3-66.4h15l-30,89.3h-13.4L394,208.3c-1.6-4.7-3.2-9.5-3.2-9.5l0,0
		c0,0-1.6,5.5-2.4,9.5l-22.1,63.2h-13.4L323.6,182.2z"/>
	<path fill="#313131" d="M514.9,179.8c24.5,0,37.2,19,37.2,41.1c0,2.4,0,6.3,0,6.3h-68.8c0.8,22.9,15.8,35.6,34.8,35.6
		c16.6,0,26.9-11.1,26.9-11.1l5.5,9.5c0,0-12.6,12.6-33.2,12.6c-26.9,0-46.6-19-46.6-46.6C470.6,197.2,490.4,179.8,514.9,179.8z
		 M540.2,217c-0.8-19-11.9-27.7-25.3-27.7c-15,0-27.7,9.5-30.8,27.7H540.2z"/>
	<path fill="#313131" d="M676.3,179.8c24.5,0,37.2,19,37.2,41.1c0,2.4,0,6.3,0,6.3h-68.8c0.8,22.9,15.8,35.6,34.8,35.6
		c16.6,0,26.9-11.1,26.9-11.1l5.5,9.5c0,0-12.6,12.6-33.2,12.6c-26.9,0-46.6-19-46.6-46.6C632,197.2,651.8,179.8,676.3,179.8z
		 M701.6,217c-0.8-19-11.9-27.7-25.3-27.7c-15,0-27.7,9.5-30.8,27.7H701.6z"/>
	<path fill="#313131" d="M575,182.2h11.9V198c0,4,0,7.1,0,7.1l0,0c4-13.4,14.2-23.7,28.5-23.7c2.4,0,4.7,0.8,4.7,0.8v11.9
		c0,0-2.4,0-4.7,0c-12.6,0-22.1,10.3-26.1,22.9c-1.6,5.5-2.4,11.9-2.4,17.4v37.9H575L575,182.2L575,182.2z"/>
	<path fill="#313131" d="M774.5,179.8c21.3,0,29.2,16.6,29.2,16.6l0,0c0,0,0-3.2,0-7.1v-42.7h11.9v124.9h-11.9V262c0-4,0-6.3,0-6.3
		l0,0c0,0-7.1,18.2-30.8,18.2c-23.7,0-38.7-19-38.7-46.6C734.9,198,751.5,179.8,774.5,179.8z M775.2,262.8c15,0,29.2-10.3,29.2-36.4
		c0-18.2-9.5-35.6-28.5-35.6c-15.8,0-28.5,13.4-28.5,35.6C746.8,248.6,758.6,262.8,775.2,262.8z"/>
	<path fill="#313131" d="M892.2,146.6h11.9v43.5c0,4,0,7.1,0,7.1l0,0c0,0,7.1-17.4,30-17.4c23.7,0,38.7,19,38.7,46.6
		c0,28.5-16.6,46.6-40.3,46.6c-21.3,0-29.2-17.4-29.2-17.4l0,0c0,0,0,3.2,0,7.1v7.9h-11.9V146.6H892.2z M932.6,262.8
		c15.8,0,28.5-13.4,28.5-36.4c0-22.1-11.9-35.6-28.5-35.6c-15,0-29.2,10.3-29.2,36.4C904.1,244.7,913.6,262.8,932.6,262.8z"/>
	<path fill="#313131" d="M988.7,293.7c0,0,4.7,4,10.3,4c7.9,0,13.4-6.3,16.6-14.2l5.5-12.6l-37.2-88.5h13.4l26.1,64.8
		c1.6,4.7,3.2,9.5,3.2,9.5l0,0c0,0,1.6-4.7,3.2-9.5l26.1-64.8h13.4l-44.3,107.5c-4.7,11.1-13.4,19-26.1,19c-9.5,0-15.8-5.5-15.8-5.5
		L988.7,293.7z"/>
</g>
</svg>
